<?xml version="1.0" encoding="UTF-8"?>
<svg width="960px" height="960px" viewBox="0 0 960 960" version="1.1" xmlns="http://www.w3.org/2000/svg" xmlns:xlink="http://www.w3.org/1999/xlink">
    <title>drivers/tv/assets/icon/ assets/icon</title>
    <g id="/drivers/tv/assets/icon" stroke="none" fill="none" fill-rule="nonzero">
        <path d="M48.5840503,115.00134 L918.466426,125.146805 C940.374391,125.402284 958,143.234632 958,165.144086 L958,726.291326 C958,747.797896 940.994337,765.454995 919.502953,766.26308 L719.618852,773.778 L719.7948,774.125246 C722.42201,779.386389 723.913262,785.275005 723.996332,791.438019 L724,791.982518 L724,795.531328 C724,816.961077 707.111486,834.583772 685.701125,835.495139 L439.765077,845.963811 C435.045873,846.164691 430.32839,845.528121 425.831216,844.083595 L336.181852,815.287 L315.408451,815.287249 C307.541541,815.287249 299.853937,812.967601 293.30472,808.625294 L292.803195,808.287286 L285.483876,803.273501 C282.999078,801.571397 280.714473,799.594096 278.673498,797.379193 L274.584367,792.941592 C273.937266,792.239346 273.319501,791.519125 272.731164,790.782555 L272.576852,790.587 L49.6207079,798.971749 C45.1505368,799.139844 40.6855244,798.556859 36.4112346,797.248666 L35.7379587,797.036087 L29.6203345,795.044974 C13.1490988,789.684054 2,774.330581 2,757.008887 L2,156.281533 C2,137.351031 15.2704008,121.012674 33.79873,117.13132 L39.9163542,115.849787 C42.2480017,115.361349 44.6175806,115.0824 46.9967925,115.015706 L47.7901811,115.00134 L48.5840503,115.00134 Z M327.145972,769.246701 L307.812,769.97334 L308.089132,770.273464 L315.408451,775.287249 L342.447407,775.287249 L438.063951,806 L684,795.531328 L684,792.89034 L442.3881,802.983876 C441.217847,803.032762 440.048105,802.875679 438.932211,802.519787 L351.097208,774.506615 L328.062952,769.491734 C327.750504,769.423712 327.444675,769.34177 327.145972,769.246701 Z M563.686,760.34034 L392.687,766.77834 L443.322208,782.926615 L621.298,775.49234 L563.686,760.34034 Z M48.5206495,155.134928 L42.4044471,156.417704 L42.404,757.13934 L48.1176242,759 L316.362852,748.913 L315.818,749.65734 L540.524,741.19734 L541.150852,740.461 L918,726.291326 L918,165.28634 L48.5206495,155.134928 Z M68.2825252,164.489335 L901.373354,170.7973 C906.8665,170.838891 911.297642,175.30371 911.297642,180.797013 L911.297642,711.623351 C911.297642,717.029838 907.000547,721.457322 901.596475,721.618885 L68.5056463,746.530077 C62.8682342,746.694056 58.2068133,742.169913 58.2068133,736.529982 L58.2068133,174.489335 C58.2068133,168.936903 62.730246,164.447589 68.2825252,164.489335 Z M78.2068133,184.564341 L78.2068133,726.226341 L891.296813,701.917341 L891.296813,190.721341 L78.2068133,184.564341 Z" id="Combined-Shape" fill="#000000"></path>
    </g>
</svg>