<?xml version="1.0" encoding="UTF-8"?>
<svg width="960px" height="960px" viewBox="0 0 960 960" version="1.1" xmlns="http://www.w3.org/2000/svg" xmlns:xlink="http://www.w3.org/1999/xlink">
    <title>drivers/dishwasher/assets/icon/ assets/icon</title>
    <g id="/drivers/dishwasher/assets/icon" stroke="none" fill="none" fill-rule="nonzero">
        <path d="M272.165828,3.5260937 L821.005579,39.091239 C840.957304,40.3841228 856.890137,56.2103061 858.316989,76.1528979 L867.358024,202.516126 C867.425996,203.466149 867.460015,204.418297 867.460015,205.370748 L867.460015,888.915402 C867.460015,910.227086 850.750871,927.796296 829.466003,928.865071 L271.585216,956.877868 C265.230449,957.196959 258.89124,955.995472 253.093962,953.373172 L114.031448,890.470597 C99.7155649,883.995049 90.5167144,869.737952 90.5167144,854.025625 L90.5167144,116.5 C90.5167144,101.638049 98.7566171,88.001337 111.913417,81.0893049 L250.975931,8.03167976 C257.490326,4.60928954 264.822555,3.0502452 272.165828,3.5260937 Z M827.459714,840.780362 L279.715714,865.384362 L279.579714,916.425362 L827.460015,888.915402 L827.459714,840.780362 Z M235.165714,853.503362 L235.165714,901.361362 L259.590714,912.409362 L259.724714,862.176362 L235.165714,853.503362 Z M215.165714,72.0283615 L130.516714,116.5 L130.516714,854.025625 L215.165714,892.314362 L215.165714,72.0283615 Z M281.506714,194.775362 L279.769714,845.360362 L827.459714,820.759362 L827.460035,215.370882 C827.334814,215.3708 827.209092,215.368397 827.082913,215.363635 L281.506714,194.775362 Z M259.649714,48.6583615 L235.165714,61.5213615 L235.165714,832.293362 L259.781714,840.986362 L261.535229,184.443375 L259.649714,48.6583615 Z M279.588714,44.0913615 L281.401714,174.756362 L483.218714,182.372362 L496.267102,154.918228 C498.673105,149.855601 503.866818,146.716054 509.467667,146.938621 L616.243426,151.181681 C622.111322,151.414859 627.210046,155.285386 629.012094,160.87459 L637.824714,188.207362 L826.741714,195.336362 L818.41898,79.0075202 L279.588714,44.0913615 Z M671.232136,99 L786.63422,105.919276 L789.861795,164 L675.020795,158.559586 L671.232136,99 Z" id="Combined-Shape" fill="#000000"></path>
    </g>
</svg>