<svg xmlns="http://www.w3.org/2000/svg" xmlns:xlink="http://www.w3.org/1999/xlink" version="1.1" width="256" height="256" viewBox="0 0 256 256" xml:space="preserve">

<defs>
</defs>
    <g style="stroke: none; stroke-width: 0; stroke-dasharray: none; stroke-linecap: butt; stroke-linejoin: miter; stroke-miterlimit: 10; fill: none; fill-rule: nonzero; opacity: 1;" transform="translate(1.4065934065934016 1.4065934065934016) scale(2.81 2.81)" >
	<path d="M 83.217 16.065 H 6.783 C 3.043 16.065 0 19.108 0 22.848 V 53.22 c 0 3.74 3.043 6.783 6.783 6.783 h 11.531 h 53.371 h 11.531 c 3.74 0 6.783 -3.043 6.783 -6.783 V 22.848 C 90 19.108 86.957 16.065 83.217 16.065 z M 19.314 58.003 v -2.93 H 66.14 c 0.553 0 1 -0.447 1 -1 s -0.447 -1 -1 -1 H 19.314 v -1.314 c 0 -0.89 0.725 -1.614 1.615 -1.614 H 69.07 c 0.891 0 1.615 0.725 1.615 1.614 v 6.244 H 19.314 z M 88 53.22 c 0 2.638 -2.146 4.783 -4.783 4.783 H 72.686 v -6.244 c 0 -1.993 -1.622 -3.614 -3.615 -3.614 H 20.929 c -1.993 0 -3.615 1.621 -3.615 3.614 v 6.244 H 6.783 C 4.146 58.003 2 55.857 2 53.22 V 22.848 c 0 -2.638 2.146 -4.783 4.783 -4.783 h 76.434 c 2.638 0 4.783 2.146 4.783 4.783 V 53.22 z" style="stroke: none; stroke-width: 1; stroke-dasharray: none; stroke-linecap: butt; stroke-linejoin: miter; stroke-miterlimit: 10; fill: rgb(0,0,0); fill-rule: nonzero; opacity: 1;" transform=" matrix(1 0 0 1 0 0) " stroke-linecap="round" />
        <path d="M 71.686 24.802 H 45 c -0.552 0 -1 -0.448 -1 -1 s 0.448 -1 1 -1 h 26.686 c 0.553 0 1 0.448 1 1 S 72.238 24.802 71.686 24.802 z" style="stroke: none; stroke-width: 1; stroke-dasharray: none; stroke-linecap: butt; stroke-linejoin: miter; stroke-miterlimit: 10; fill: rgb(0,0,0); fill-rule: nonzero; opacity: 1;" transform=" matrix(1 0 0 1 0 0) " stroke-linecap="round" />
        <path d="M 83.802 24.802 h -5.375 c -0.553 0 -1 -0.448 -1 -1 s 0.447 -1 1 -1 h 5.375 c 0.553 0 1 0.448 1 1 S 84.354 24.802 83.802 24.802 z" style="stroke: none; stroke-width: 1; stroke-dasharray: none; stroke-linecap: butt; stroke-linejoin: miter; stroke-miterlimit: 10; fill: rgb(0,0,0); fill-rule: nonzero; opacity: 1;" transform=" matrix(1 0 0 1 0 0) " stroke-linecap="round" />
        <path d="M 44.843 73.936 c -0.552 0 -1 -0.447 -1 -1 v -9.11 c 0 -0.553 0.448 -1 1 -1 s 1 0.447 1 1 v 9.11 C 45.843 73.488 45.396 73.936 44.843 73.936 z" style="stroke: none; stroke-width: 1; stroke-dasharray: none; stroke-linecap: butt; stroke-linejoin: miter; stroke-miterlimit: 10; fill: rgb(0,0,0); fill-rule: nonzero; opacity: 1;" transform=" matrix(1 0 0 1 0 0) " stroke-linecap="round" />
        <path d="M 54.844 73.936 c -0.553 0 -1 -0.447 -1 -1 v -9.11 c 0 -0.553 0.447 -1 1 -1 s 1 0.447 1 1 v 9.11 C 55.844 73.488 55.396 73.936 54.844 73.936 z" style="stroke: none; stroke-width: 1; stroke-dasharray: none; stroke-linecap: butt; stroke-linejoin: miter; stroke-miterlimit: 10; fill: rgb(0,0,0); fill-rule: nonzero; opacity: 1;" transform=" matrix(1 0 0 1 0 0) " stroke-linecap="round" />
        <path d="M 34.843 73.936 c -0.552 0 -1 -0.447 -1 -1 v -9.11 c 0 -0.553 0.448 -1 1 -1 s 1 0.447 1 1 v 9.11 C 35.843 73.488 35.396 73.936 34.843 73.936 z" style="stroke: none; stroke-width: 1; stroke-dasharray: none; stroke-linecap: butt; stroke-linejoin: miter; stroke-miterlimit: 10; fill: rgb(0,0,0); fill-rule: nonzero; opacity: 1;" transform=" matrix(1 0 0 1 0 0) " stroke-linecap="round" />
        <path d="M 69.155 73.936 c -0.135 0 -0.272 -0.027 -0.404 -0.086 c -3.168 -1.403 -4.819 -4.771 -4.907 -10.008 c -0.009 -0.552 0.431 -1.007 0.983 -1.017 c 0.006 0 0.012 0 0.017 0 c 0.545 0 0.99 0.437 1 0.983 c 0.073 4.39 1.324 7.152 3.718 8.213 c 0.505 0.224 0.732 0.814 0.509 1.319 C 69.905 73.714 69.539 73.936 69.155 73.936 z" style="stroke: none; stroke-width: 1; stroke-dasharray: none; stroke-linecap: butt; stroke-linejoin: miter; stroke-miterlimit: 10; fill: rgb(0,0,0); fill-rule: nonzero; opacity: 1;" transform=" matrix(1 0 0 1 0 0) " stroke-linecap="round" />
        <path d="M 20.844 73.936 c -0.384 0 -0.75 -0.222 -0.915 -0.595 c -0.224 -0.505 0.005 -1.096 0.51 -1.319 c 2.393 -1.06 3.644 -3.823 3.718 -8.213 c 0.01 -0.553 0.494 -0.958 1.017 -0.983 c 0.552 0.01 0.992 0.465 0.983 1.017 c -0.089 5.238 -1.74 8.605 -4.909 10.008 C 21.117 73.908 20.979 73.936 20.844 73.936 z" style="stroke: none; stroke-width: 1; stroke-dasharray: none; stroke-linecap: butt; stroke-linejoin: miter; stroke-miterlimit: 10; fill: rgb(0,0,0); fill-rule: nonzero; opacity: 1;" transform=" matrix(1 0 0 1 0 0) " stroke-linecap="round" />
</g>
</svg>
