<?xml version="1.0" encoding="utf-8"?>
<!-- Generator: Adobe Illustrator 26.0.3, SVG Export Plug-In . SVG Version: 6.00 Build 0)  -->
<svg version="1.1" id="Layer_1" xmlns="http://www.w3.org/2000/svg" xmlns:xlink="http://www.w3.org/1999/xlink" x="0px" y="0px"
	 viewBox="0 0 776.9 954" style="enable-background:new 0 0 776.9 954;" xml:space="preserve">
<style type="text/css">
	.st0{fill:none;stroke:#000000;stroke-width:40;stroke-linejoin:round;}
	.st1{fill:none;stroke:#000000;stroke-width:20;stroke-linecap:round;stroke-linejoin:round;}
	.st2{fill-rule:evenodd;clip-rule:evenodd;stroke:#000000;stroke-width:20;}
	.st3{fill:none;stroke:#000000;stroke-width:20;}
</style>
<g>
	<path class="st0" d="M174.7,20l571.9,37.1l10.3,144.5v703.3L175.2,934L20,863.8V101.3L174.7,20z"/>
	<g>
		<path class="st1" d="M179.1,913.8l2-732.5l-2-140.9"/>
		<path class="st1" d="M744.8,141c-0.1-3.9-0.1-5.8,0-5.5c2.4,10-8.6,23.5-15.5,26.9c-7.2,3.6-17.7,5.8-31.5,6.7l-444-17.1
			c-9,0-20.1-1.5-33.3-4.6s-26.4-10.1-39.5-20.9"/>
		<path class="st1" d="M744.8,189.3c-0.1-5-0.1-7.4,0-7c2.4,12.7-8.6,30-15.5,34.4c-7.2,4.6-17.7,7.5-31.5,8.6l-109.5-4.8
			 M373.7,215.7L253.9,210c-9,0-20.1-2-33.3-6.1s-26.4-15.2-39.5-33.4"/>
		
			<ellipse transform="matrix(5.233596e-02 -0.9986 0.9986 5.233596e-02 363.9416 595.0063)" class="st1" cx="495.5" cy="105.7" rx="28" ry="24.6"/>
		<path class="st1" d="M315.2,212.7c17.3,1.6,63.2-3.2,65-53.8"/>
		<path class="st2" d="M480.8,233.9c64.4,0,122.8,28,165,73.1c42.5,45.4,68.7,108.1,68.7,177.4s-26.2,132-68.7,177.4
			c-42.2,45.1-100.6,73.1-165,73.1c-1.1,0-2.1,0-3.2,0l-1.6,0l-0.9,0l-3.9,0c-64.4,0-122.8-28-165-73.1
			c-42.5-45.4-68.7-108.1-68.7-177.4s26.2-132,68.7-177.4c42.2-45.1,100.6-73.1,165-73.1c1.1,0,2.1,0,3.2,0l1.6,0l0.9,0L480.8,233.9
			z M491.4,301.9l-2.4,0l-1.3,0l-1.3,0c-47.6,0-90.7,20.5-121.8,53.7c-31,33-50.2,78.5-50.2,128.8c0,2.3,0,4.5,0.1,6.8l0.4,1.6
			l0.3,1.5l0.1,0.6c3.4,18.2,16.3,39.8,53,54.6c25,10.1,61.7,17.1,115.1,17.1c113.2,0,161.6-27.2,176.9-52.1
			c0.4-0.6,0.7-1.2,1.1-1.9c0.1-0.7,0.2-1.3,0.3-2c1.1-8.5,1.7-17.2,1.7-26.1c0-50.3-19.2-95.9-50.2-128.8
			C582.1,322.3,539,301.9,491.4,301.9L491.4,301.9z"/>
		<path class="st3" d="M470,314.9c43.1,0,82.1,18.9,110.4,49.4c28.5,30.7,46.1,73.2,46.1,120.1s-17.6,89.4-46.1,120.1
			c-28.3,30.5-67.3,49.4-110.4,49.4c-0.8,0-1.6,0-2.5,0l-2.6,0c-43.1,0-82.1-18.9-110.4-49.4c-28.5-30.7-46.1-73.2-46.1-120.1
			s17.6-89.4,46.1-120.1c28.3-30.5,67.3-49.4,110.4-49.4c0.8,0,1.6,0,2.5,0L470,314.9z"/>
		<path class="st1" d="M375.2,215.2c29.9-11.9,62.3-18.4,96-18.4c1.1,0,2.1,0,3.2,0l1.6,0l4.6,0c36.1,0,70.5,7.4,102.1,20.8
			c0.5,0.2,8.5,2.8,9,3.1"/>
	</g>
</g>
</svg>
