<?xml version="1.0" encoding="UTF-8"?>
<svg width="960px" height="960px" viewBox="0 0 960 960" version="1.1" xmlns="http://www.w3.org/2000/svg" xmlns:xlink="http://www.w3.org/1999/xlink">
    <title>drivers/cooktop/assets/icon</title>
    <g id="/drivers/cooktop/assets/icon" stroke="none" fill="none" fill-rule="nonzero">
        <path d="M634.030906,299.954156 L932.903663,422.961421 C943.214535,427.205073 951.227626,435.632372 954.937381,446.134094 L957.767249,454.144995 C959.245,458.328272 960,462.731898 960,467.167784 L960,471.043483 C960,488.981031 947.791481,504.623974 930.371738,509.006584 L323.003989,661.813412 C313.261392,664.264538 302.948197,662.887577 294.192795,657.966699 L19.9760043,503.846144 C7.63583227,496.910485 0,483.869487 0,469.729755 L0,465.977509 C0,453.402571 6.0493872,441.593039 16.2608143,434.233366 L24.8773517,428.023177 C29.2566422,424.866895 34.241775,422.648088 39.5201645,421.505883 L610.785543,297.888182 C618.564391,296.204896 626.672087,296.925482 634.030906,299.954156 Z M41.143,464.417 L39,465.962956 L39,469.719106 L313.346019,624 L921,471.0342 L921,467.15447 L920.853,466.737 L322.687302,617.406089 C317.802895,618.636395 312.632022,617.939692 308.247993,615.460591 L41.143,464.417 Z M619.155193,336 L65.393,455.898 L318.356145,599 L901.18,452.139 L619.155193,336 Z M362,489 C419.866176,489 467,505.206898 467,531.5 C467,557.793102 419.866176,574 362,574 C304.133824,574 257,557.793102 257,531.5 C257,505.206898 304.133824,489 362,489 Z M362.5,509 C337.904885,509 314.957213,512.338325 298.301346,518.06699 C290.620767,520.708669 284.663845,523.741352 280.879368,526.818783 C278.047831,529.12131 277,530.882511 277,532 C277,533.117489 278.047831,534.87869 280.879368,537.181217 C284.663845,540.258648 290.620767,543.291331 298.301346,545.93301 C314.957213,551.661675 337.904885,555 362.5,555 C387.095115,555 410.042787,551.661675 426.698654,545.93301 C434.379233,543.291331 440.336155,540.258648 444.120632,537.181217 C446.952169,534.87869 448,533.117489 448,532 C448,530.882511 446.952169,529.12131 444.120632,526.818783 C440.336155,523.741352 434.379233,520.708669 426.698654,518.06699 C410.042787,512.338325 387.095115,509 362.5,509 Z M553.513153,517.183118 C563.257377,517.183118 571.156631,520.031397 571.156631,523.544928 C571.156631,527.058459 563.257377,529.906739 553.513153,529.906739 C543.768929,529.906739 535.869674,527.058459 535.869674,523.544928 C535.869674,520.031397 543.768929,517.183118 553.513153,517.183118 Z M522.146969,502.502017 C531.891193,502.502017 539.790447,505.350296 539.790447,508.863827 C539.790447,512.377358 531.891193,515.225638 522.146969,515.225638 C512.402745,515.225638 504.50349,512.377358 504.50349,508.863827 C504.50349,505.350296 512.402745,502.502017 522.146969,502.502017 Z M642.710739,495.650836 C652.454963,495.650836 660.354217,498.499116 660.354217,502.012647 C660.354217,505.526178 652.454963,508.374457 642.710739,508.374457 C632.966515,508.374457 625.06726,505.526178 625.06726,502.012647 C625.06726,498.499116 632.966515,495.650836 642.710739,495.650836 Z M569.5,483 C579.164983,483 587,485.910149 587,489.5 C587,489.668455 586.982747,489.835413 586.948863,490.000644 L587,490 L587,499 L586.948863,499.000644 C586.26065,502.356562 578.711451,505 569.5,505 C560.288549,505 552.73935,502.356562 552.051137,499.000644 L552,499 L552,490 L552.051137,490.000644 C552.017253,489.835413 552,489.668455 552,489.5 C552,485.910149 559.835017,483 569.5,483 Z M231,430 C280.565578,430 321,443.99259 321,467.5 C321,491.00741 280.565578,505 231,505 C181.434422,505 141,491.00741 141,467.5 C141,443.99259 181.434422,430 231,430 Z M612.324748,481.948476 C622.068972,481.948476 629.968226,484.796755 629.968226,488.310286 C629.968226,491.823817 622.068972,494.672096 612.324748,494.672096 C602.580524,494.672096 594.681269,491.823817 594.681269,488.310286 C594.681269,484.796755 602.580524,481.948476 612.324748,481.948476 Z M444.5,391 C513.73879,391 570,410.062479 570,440 C570,469.937521 513.73879,489 444.5,489 C375.26121,489 319,469.937521 319,440 C319,410.062479 375.26121,391 444.5,391 Z M231.5,450 C210.9494,450 191.792531,452.798359 177.939795,457.582574 C171.628901,459.76212 166.767113,462.247485 163.734553,464.723657 C162.523359,465.712631 161.713578,466.611792 161.277416,467.347922 C161.141249,467.577738 161.061293,467.758459 161.021535,467.893666 C161.004065,467.953077 161,467.980771 161,468 C161,468.019229 161.004065,468.046923 161.021535,468.106334 C161.061293,468.241541 161.141249,468.422262 161.277416,468.652078 C161.713578,469.388208 162.523359,470.287369 163.734553,471.276343 C166.767113,473.752515 171.628901,476.23788 177.939795,478.417426 C191.792531,483.201641 210.9494,486 231.5,486 C252.0506,486 271.207469,483.201641 285.060205,478.417426 C291.371099,476.23788 296.232887,473.752515 299.265447,471.276343 C300.476641,470.287369 301.286422,469.388208 301.722584,468.652078 C301.858751,468.422262 301.938707,468.241541 301.978465,468.106334 C301.995935,468.046923 302,468.019229 302,468 C302,467.980771 301.995935,467.953077 301.978465,467.893666 C301.938707,467.758459 301.858751,467.577738 301.722584,467.347922 C301.286422,466.611792 300.476641,465.712631 299.265447,464.723657 C296.232887,462.247485 291.371099,459.76212 285.060205,457.582574 C271.207469,452.798359 252.0506,450 231.5,450 Z M736.5,412 C757.279068,412 776.852218,414.669197 791.632651,419.43464 C799.328788,421.915995 805.670346,424.942428 810.37174,428.526189 C816.376774,433.103683 820,438.812461 820,445.5 C820,452.187539 816.376774,457.896317 810.37174,462.473811 C805.670346,466.057572 799.328788,469.084005 791.632651,471.56536 C776.852218,476.330803 757.279068,479 736.5,479 C715.720932,479 696.147782,476.330803 681.367349,471.56536 C673.671212,469.084005 667.329654,466.057572 662.62826,462.473811 C656.623226,457.896317 653,452.187539 653,445.5 C653,438.812461 656.623226,433.103683 662.62826,428.526189 C667.329654,424.942428 673.671212,421.915995 681.367349,419.43464 C696.147782,414.669197 715.720932,412 736.5,412 Z M445,410 C414.877923,410 386.748487,414.040745 366.2575,420.999948 C348.286972,427.103146 339,434.560196 339,439.5 C339,444.439804 348.286972,451.896854 366.2575,458.000052 C386.748487,464.959255 414.877923,469 445,469 C475.122077,469 503.251513,464.959255 523.7425,458.000052 C541.713028,451.896854 551,444.439804 551,439.5 C551,434.560196 541.713028,427.103146 523.7425,420.999948 C503.251513,414.040745 475.122077,410 445,410 Z M736.500629,431 C717.686027,431 700.150753,433.392321 687.488235,437.476675 C681.758612,439.324791 677.360102,441.424832 674.661464,443.482825 C673.960313,444.017526 673.435412,444.502666 673.077546,444.910158 L673,444.999478 L673.077546,445.089842 C673.395649,445.452057 673.845731,445.875624 674.434262,446.340815 L674.661464,446.517175 C677.360102,448.575168 681.758612,450.675209 687.488235,452.523325 C700.150753,456.607679 717.686027,459 736.500629,459 C755.315232,459 772.850506,456.607679 785.513024,452.523325 C791.242647,450.675209 795.641157,448.575168 798.339795,446.517175 C799.040946,445.982474 799.565847,445.497334 799.923713,445.089842 L800,444.999478 L799.923713,444.910158 C799.60561,444.547943 799.155528,444.124376 798.566997,443.659185 L798.339795,443.482825 C795.641157,441.424832 791.242647,439.324791 785.513024,437.476675 C772.850506,433.392321 755.315232,431 736.500629,431 Z M612,353 C632.378314,353 651.575654,355.617199 666.077555,360.291504 C673.636589,362.727958 679.868126,365.701035 684.493222,369.225628 C690.418689,373.741181 694,379.382304 694,386 C694,392.617696 690.418689,398.258819 684.493222,402.774372 C679.868126,406.298965 673.636589,409.272042 666.077555,411.708496 C651.575654,416.382801 632.378314,419 612,419 C591.621686,419 572.424346,416.382801 557.922445,411.708496 C550.363411,409.272042 544.131874,406.298965 539.506778,402.774372 C533.581311,398.258819 530,392.617696 530,386 C530,379.382304 533.581311,373.741181 539.506778,369.225628 C544.131874,365.701035 550.363411,362.727958 557.922445,360.291504 C572.424346,355.617199 591.621686,353 612,353 Z M612.000343,372 C593.576406,372 576.407093,374.335707 564.014693,378.32152 C558.416509,380.122085 554.122853,382.166212 551.49606,384.163697 C550.895069,384.620708 550.430088,385.038282 550.094551,385.396824 L550,385.500277 L550.094551,385.603176 C550.388146,385.916901 550.780846,386.275821 551.277051,386.666811 L551.49606,386.836303 C554.122853,388.833788 558.416509,390.877915 564.014693,392.67848 C576.407093,396.664293 593.576406,399 612.000343,399 C630.42428,399 647.593594,396.664293 659.985993,392.67848 C665.584177,390.877915 669.877834,388.833788 672.504626,386.836303 C673.105617,386.379292 673.570599,385.961718 673.906135,385.603176 L674,385.499307 L673.906135,385.396824 C673.612541,385.083099 673.21984,384.724179 672.723635,384.333189 L672.504626,384.163697 C669.877834,382.166212 665.584177,380.122085 659.985993,378.32152 C647.593594,374.335707 630.42428,372 612.000343,372 Z" id="Combined-Shape" fill="#000000"></path>
    </g>
</svg>