<?xml version="1.0" encoding="UTF-8"?>
<svg width="600px" height="600px" viewBox="0 0 600 600" version="1.1" xmlns="http://www.w3.org/2000/svg" xmlns:xlink="http://www.w3.org/1999/xlink">
    <title>drivers/cooktop/assets/icon</title>
    <g id="/drivers/cooktop/assets/icon" stroke="none" fill="none" fill-rule="evenodd" stroke-linejoin="round" stroke-width="1">
        <g id="cooking-plate" transform="translate(-64, -73)" stroke="#000000">
            <g id="Group" transform="translate(83, 254)">
                <polygon id="Path" stroke-width="31.0603735" points="398.928784 0 564 106.154196 97.0084478 222 0 75.9821779"></polygon>
                <path d="M125.71254,129.717712 C154.34121,128.225336 176.976161,116.141452 176.269077,102.726562 C175.562581,89.3122606 151.781564,79.6471556 123.152894,81.1395312 C94.5242245,82.6319068 71.8892736,94.715791 72.596358,108.130681 C73.3028532,121.544982 97.0838702,131.210087 125.71254,129.717712 Z M168.738038,178.043826 C191.022982,176.875367 208.642348,167.41168 208.092,156.906746 C207.541653,146.401222 189.030183,138.832157 166.745239,140.000615 C144.460294,141.169074 126.840929,150.632761 127.391276,161.137695 C127.941624,171.643219 146.453094,179.212284 168.738038,178.043826 Z M431.279664,110.194918 C455.024148,111.852197 474.865526,104.733671 475.597359,94.2946985 C476.328013,83.8557255 457.672769,74.0504526 433.927695,72.3931736 C410.183211,70.7358946 390.341833,77.8544202 389.61,88.2933933 C388.879346,98.7323663 407.534591,108.537639 431.279664,110.194918 Z M374.627471,63.6786188 C395.933692,65.1704055 413.705081,59.2321169 414.320833,50.4133196 C414.936586,41.5957002 398.163954,33.2380434 376.857143,31.7462568 C355.550922,30.2544701 337.779533,36.1927587 337.163781,45.011556 C336.548028,53.8291754 353.32066,62.1868321 374.627471,63.6786188 Z M267.693914,110.412237 C303.490063,111.039459 332.737432,98.3742904 333.019677,82.1230621 C333.302511,65.8718338 304.513568,52.1901535 268.718008,51.5629318 C232.921859,50.93571 203.67449,63.6008786 203.392246,79.8521069 C203.109412,96.1033352 231.898355,109.785015 267.693914,110.412237 Z" id="Shape" stroke-width="13.9771681" stroke-linecap="round"></path>
                <path d="M260.636033,162.25256 L257.920829,159.460981 C253.837417,155.26419 253.931694,148.552623 258.131187,144.471264 C259.502649,143.138428 261.209222,142.201119 263.070171,141.758603 L348.885473,121.350632 C359.392658,118.852049 370.466167,121.290935 378.949524,127.972092 L383.558536,131.602322" id="Path" stroke-width="15.5301867" stroke-linecap="round"></path>
            </g>
        </g>
    </g>
</svg>