<?xml version="1.0" encoding="UTF-8"?>
<svg width="960px" height="960px" viewBox="0 0 960 960" version="1.1" xmlns="http://www.w3.org/2000/svg" xmlns:xlink="http://www.w3.org/1999/xlink">
    <title>drivers/refrigerator/assets/icon</title>
    <g id="/drivers/refrigerator/assets/icon" stroke="none" fill="none" fill-rule="nonzero">
        <path d="M379.14646,2.02563663 L654.717605,15.9919577 C665.35618,16.5311352 673.705277,25.3140915 673.705277,35.9663211 L673.705277,925.098706 C673.705277,935.752755 665.353422,944.536542 654.712903,945.073307 L379.141759,958.974601 C374.920888,959.187525 370.741055,958.057898 367.202042,955.747818 L296.06791,909.315217 C290.41064,905.62245 287,899.323228 287,892.567399 L287,58.2855997 C287,50.76811 291.215477,43.8855486 297.912049,40.4696196 L369.046181,4.18401999 C372.165897,2.59264951 375.648795,1.84837018 379.14646,2.02563663 Z M633.705,557.656996 L412.783,564.312996 L412.783111,758.819411 C412.783111,764.777742 407.605405,769.414088 401.683225,768.75874 L388.134,767.258996 L388.134,918.468996 L633.705,906.082 L633.705,557.656996 Z M368.134,49.5519961 L327,70.534 L327,881.738 L368.134,908.587996 L368.13363,756.190701 C368.13317,756.137452 368.133133,756.084123 368.133524,756.030716 L368.133419,342.392712 C368.132332,342.308254 368.132316,342.223611 368.133385,342.1388 L368.134,49.5519961 Z M392.782,564.915996 L388.134,565.055996 L388.134,747.136996 L392.782132,747.651336 L392.782,564.915996 Z M388.134,354.034996 L388.134,545.046996 L392.782,544.906996 L392.782132,354.801336 L388.134,354.034996 Z M388.134,42.5329961 L388.134,333.764996 L404.409497,336.44845 C409.239461,337.244589 412.783111,341.420167 412.783111,346.315307 L412.783,544.303996 L633.705,537.647996 L633.705,54.978 L388.134,42.5329961 Z M506.15786,145.228284 L506.434922,145.233909 L536.551849,146.233909 C541.942545,146.412901 546.219993,150.834734 546.219993,156.228401 L546.219993,242.258544 C546.219993,247.781391 541.74284,252.258544 536.219993,252.258544 L506.103066,252.258544 C500.580218,252.258544 496.103066,247.781391 496.103066,242.258544 L496.103066,155.228401 C496.103066,149.760823 500.48313,145.344516 505.882456,145.230541 L506.15786,145.228284 Z" id="Combined-Shape" fill="#000000"></path>
    </g>
</svg>