<?xml version="1.0" encoding="UTF-8"?>
<svg width="960px" height="960px" viewBox="0 0 960 960" version="1.1" xmlns="http://www.w3.org/2000/svg" xmlns:xlink="http://www.w3.org/1999/xlink">
    <title>assets / capabilities / addwash-door-open</title>
    <g id="assets-/-capabilities-/-addwash-door-open" stroke="none" stroke-width="1" fill="none" fill-rule="evenodd" stroke-linejoin="round">
        <path d="M193.843844,186.432976 C253.629899,162.610256 348.479408,132.956627 437.806369,140.11592 C554.606196,149.477083 654.840513,203.621791 705.23711,249.699303 L706.246,250.63 L708.834965,251.32769 C790.593475,273.622151 828.704119,309.483183 847.451791,327.203718 L848.043576,327.76307 C849.684895,329.31422 851.10659,330.670243 852.353687,331.774901 C869.019124,346.536879 882.333103,368.978451 883.859391,398.604789 C884.887579,418.562664 880.486462,442.566382 865.441865,469.869445 C841.522585,513.278358 744.799301,651.623157 714.835077,690.890716 C711.005764,695.90896 707.121853,700.901711 703.09766,705.817114 C701.825275,714.079272 700.520177,722.54174 699.18197,731.203847 C698.931265,732.826645 698.681566,734.442412 698.430804,736.053827 C697.644328,738.10274 696.791379,740.105167 695.875192,742.061468 C681.633441,772.471377 649.046952,798.279049 589.291536,811.023416 C544.656916,820.542888 483.252324,823.407402 404.991302,818.845093 C308.238305,813.204774 254.799916,807.172941 221.269948,794.143512 C161.526208,770.927659 152.487315,736.775105 147.268208,720.594876 C147.178204,720.315847 147.164831,720.053197 147.085544,719.864768 C146.782271,719.144019 146.491246,718.471676 146.207168,717.813873 L146.207168,717.813873 L145.673107,716.57406 C140.4482,704.382894 135.506916,691.942268 104.647757,532.52631 C101.954689,518.614135 99.282376,505.281943 96.7207537,492.500694 C79.5341757,406.74803 69.168729,343.613836 82.5464751,295.583797 C95.2691786,249.905552 125.775938,213.555732 193.843844,186.432976 Z" id="Combined-Shape" stroke="#000000" stroke-width="80"></path>
        <path d="M381.544956,287.857207 C461.477965,261.72377 581.667208,253.054466 622.832096,257.242236 C758.406635,271.034449 811.677315,322.131494 834.173486,343.3538 C835.995345,345.072494 837.57712,346.570908 838.961355,347.794851 C852.160869,359.465879 862.568751,377.258842 863.775385,400.638631 C864.65235,417.630726 860.599834,437.984076 847.801921,461.168339 C824.137094,504.038731 728.393635,640.63205 698.749174,679.411153 C666.444687,721.669943 630.617045,762.321386 535.011549,765.733699 C456.329106,768.542001 319.354542,763.217847 263.598159,759.943039 C258.831505,759.663116 217.461805,755.663043 198.493088,731.327331 C178.086755,705.147245 179.606086,656.939875 180.099399,653.828249 C199.396781,532.107831 208.864017,464.235062 213.506682,430.949588 L213.506682,430.949588 L213.945812,427.801831 C218.133999,397.79176 228.189733,365.094863 277.940408,335.315744 C286.068906,330.448475 327.951795,305.379048 381.544956,287.857207 Z" id="Path-10" stroke="#000000" stroke-width="40"></path>
        <path d="M381.544956,287.857207 C461.477965,261.72377 581.667208,253.054466 622.832096,257.242236 C758.406635,271.034449 811.677315,322.131494 834.173486,343.3538 C835.995345,345.072494 837.57712,346.570908 838.961355,347.794851 C852.160869,359.465879 862.568751,377.258842 863.775385,400.638631 C864.65235,417.630726 860.599834,437.984076 847.801921,461.168339 C824.137094,504.038731 728.393635,640.63205 698.749174,679.411153 C666.444687,721.669943 630.617045,762.321386 535.011549,765.733699 C456.329106,768.542001 319.354542,763.217847 263.598159,759.943039 C258.831505,759.663116 217.461805,755.663043 198.493088,731.327331 C178.086755,705.147245 179.606086,656.939875 180.099399,653.828249 C199.396781,532.107831 208.864017,464.235062 213.506682,430.949588 L213.506682,430.949588 L213.945812,427.801831 C218.133999,397.79176 228.189733,365.094863 277.940408,335.315744 C286.068906,330.448475 327.951795,305.379048 381.544956,287.857207 Z" id="Path-10" stroke="#000000" stroke-width="40"></path>
        <path d="M415.727993,392.411117 C480.619159,371.195486 578.218842,363.271406 611.699083,366.677404 C685.5479,374.190161 724.703666,396.471599 745.378877,412.046811 L745.378877,412.046811 L737.889846,430.643807 C725.77038,449.824904 708.820362,475.092822 691.011062,500.972969 L691.011062,500.972969 L689.34291,503.395251 C680.416805,516.346872 671.308128,529.407992 662.519063,541.887748 C660.329307,544.997023 658.112258,548.137136 655.868545,551.295573 C652.11339,550.955219 648.320307,550.623773 644.489297,550.301221 C603.784194,546.874052 567.132641,545.152778 534.534003,545.152778 C492.178225,545.152778 424.436942,548.033224 331.309609,553.765699 C322.880176,554.284575 314.660026,554.801132 306.649778,555.312409 C307.787712,547.751873 309.002801,539.616642 310.29628,530.875758 C316.173253,491.161212 319.978055,463.882453 322.4407,446.226576 C322.786859,443.744796 323.159539,441.072885 323.559158,438.206129 C324.846325,437.11311 327.08307,435.330496 330.355807,432.909843 C332.76828,431.125477 334.684439,429.77788 336.09467,428.82791 L336.724796,428.40751 C337.448611,427.929659 338.00234,427.583013 338.384118,427.359977 L338.384118,427.359977 L339.17318,426.900352 C351.095168,419.976132 380.108357,404.056662 415.727993,392.411117 Z" id="Combined-Shape" stroke="#000000" stroke-width="40"></path>
    </g>
</svg>