<?xml version="1.0" encoding="UTF-8"?>
<svg width="960px" height="960px" viewBox="0 0 960 960" version="1.1" xmlns="http://www.w3.org/2000/svg" xmlns:xlink="http://www.w3.org/1999/xlink">
    <title>assets / capabilities / progress</title>
    <g id="assets-/-capabilities-/-progress" stroke="none" stroke-width="1" fill="none" fill-rule="evenodd">
        <path d="M160.628484,628.176337 L798.628484,628.176337 C853.856959,628.176337 898.628484,583.404812 898.628484,528.176337 L898.628484,431.176337 C898.628484,375.947862 853.856959,331.176337 798.628484,331.176337 L160.628484,331.176337 C105.400009,331.176337 60.6284838,375.947862 60.6284838,431.176337 L60.6284838,528.176337 C60.6284838,583.404812 105.400009,628.176337 160.628484,628.176337 Z" id="Path-5" stroke="#000000" stroke-width="80" stroke-linecap="round" stroke-linejoin="round" transform="translate(479.628484, 479.676337) rotate(-180.000000) translate(-479.628484, -479.676337) "></path>
        <path d="M608.961484,401.177176 L608.961484,558.174176 L160.628484,558.176337 C152.344213,558.176337 144.844213,554.818473 139.41528,549.389541 C134.179275,544.153535 130.867387,536.991196 130.638871,529.055289 L130.628484,528.547702 L130.628484,431.176337 C130.628484,422.892066 133.986348,415.392066 139.41528,409.963134 C144.651286,404.727128 151.813625,401.41524 159.749532,401.188784 L160.257119,401.178531 L608.961484,401.177176 Z" id="Combined-Shape" fill="#000000"></path>
    </g>
</svg>