<?xml version="1.0" encoding="UTF-8"?>
<svg width="64px" height="64px" viewBox="0 0 64 64" version="1.1" xmlns="http://www.w3.org/2000/svg" xmlns:xlink="http://www.w3.org/1999/xlink">
    <title>fan_mode</title>
    <g id="fan_mode" stroke="none" stroke-width="1" fill="none" fill-rule="evenodd">
        <path d="M32,50 C33.6568542,50 35,51.3431458 35,53 C35,54.6568542 33.6568542,56 32,56 C30.3431458,56 29,54.6568542 29,53 C29,51.3431458 30.3431458,50 32,50 Z M23,50 C24.6568542,50 26,51.3431458 26,53 C26,54.6568542 24.6568542,56 23,56 C21.3431458,56 20,54.6568542 20,53 C20,51.3431458 21.3431458,50 23,50 Z M41,50 C42.6568542,50 44,51.3431458 44,53 C44,54.6568542 42.6568542,56 41,56 C39.3431458,56 38,54.6568542 38,53 C38,51.3431458 39.3431458,50 41,50 Z M32,8 C45.254834,8 56,18.745166 56,32 C56,39.7350127 52.3407961,46.6153726 46.6590168,51.0044512 C46.200186,49.7005928 45.3035429,48.6040768 44.1459469,47.8899035 C48.9205302,44.2359798 52,38.4776143 52,32 C52,20.954305 43.045695,12 32,12 C20.954305,12 12,20.954305 12,32 C12,38.4776143 15.0794698,44.2359798 19.8542864,47.8909735 C18.6964571,48.6040768 17.799814,49.7005928 17.3402301,51.0033454 C11.6592039,46.6153726 8,39.7350127 8,32 C8,18.745166 18.745166,8 32,8 Z M27.62463,34.4218376 C28.4774814,35.9593396 30.1172111,37 32,37 L31.9809282,37.001877 C31.8476366,40.3558516 31.0156706,42.2058863 29.4850299,43.7365269 C28.249983,44.9715739 26.6465982,45.9779623 25,46 C23.2935717,46.0228385 21.5433962,45.0164501 20.2634731,43.7365269 C17.748503,41.2215569 17.3293413,37.4491018 19.005988,35.7724551 C20.4645456,34.3138975 23.8263578,36.661849 27.435735,34.5378618 L27.62463,34.4218376 Z M37,32 L37.001877,32.0190718 C40.3558516,32.1523634 42.2058863,32.9843294 43.7365269,34.5149701 C44.9594261,35.7378693 45.9663654,37.3697761 46,39 C46.0355371,40.7224353 45.0285978,42.4444561 43.7365269,43.7365269 C41.2215569,46.251497 37.4491018,46.6706587 35.7724551,44.994012 C34.2884786,43.5100355 36.7448424,40.055889 34.4226968,36.3753422 C35.9588831,35.5232377 37,33.8832018 37,32 Z M32,29 C33.6568542,29 35,30.3431458 35,32 C35,33.6568542 33.6568542,35 32,35 C30.3431458,35 29,33.6568542 29,32 C29,30.3431458 30.3431458,29 32,29 Z M28.2275449,19.005988 C29.7115214,20.4899645 27.2551576,23.944111 29.5773032,27.6246578 C28.0406604,28.4774814 27,30.1172111 27,32 L26.9985099,31.9809436 C23.6442906,31.8477006 21.7941725,31.0157294 20.2634731,29.4850299 C19.0290881,28.250645 18.0226757,26.6457078 18,25 C17.9764756,23.2926972 18.982888,21.5440582 20.2634731,20.2634731 C22.7784431,17.748503 26.5508982,17.3293413 28.2275449,19.005988 Z M39,17.9999869 C40.675984,18.0004968 42.4795389,19.006485 43.7365269,20.2634731 C46.251497,22.7784431 46.6706587,26.5508982 44.994012,28.2275449 C43.5100355,29.7115214 40.055889,27.2551576 36.3753422,29.5773032 C35.5595979,28.107471 34.0238866,27.0914298 32.2441581,27.0058569 L32.0190323,26.9991187 C32.1521987,23.6445145 32.984178,21.7942651 34.5149701,20.2634731 C35.7729521,19.0054911 37.3226907,17.9995028 39,17.9999869 Z" id="Shape" fill="#000000"></path>
    </g>
</svg>