<?xml version="1.0" encoding="UTF-8"?>
<svg width="64px" height="64px" viewBox="0 0 64 64" version="1.1" xmlns="http://www.w3.org/2000/svg" xmlns:xlink="http://www.w3.org/1999/xlink">
    <title>swing_mode</title>
    <g id="swing_mode" stroke="none" stroke-width="1" fill="none" fill-rule="evenodd">
        <path d="M13.352744,8.17206981 C13.9337044,7.836637 14.6944882,8.00658826 15.0520023,8.55166657 L20.8299686,17.360954 C20.9411392,17.5304486 21,17.7255621 21,17.9245792 C21,18.5185177 20.4868222,19 19.8537852,19 L16,19 C16,35.0162577 28.9837423,48 45,48 L45,44.1463758 C45,43.9342575 45.0552254,43.7262998 45.1595297,43.5456476 C45.4708114,43.0065164 46.1332134,42.8384194 46.639046,43.1701924 L55.4483334,48.9481587 C55.602833,49.0494942 55.7328536,49.1880739 55.8279302,49.352744 C56.163363,49.9337044 55.9934117,50.6944882 55.4483334,51.0520023 L46.639046,56.8299686 C46.4695514,56.9411392 46.2744379,57 46.0754208,57 C45.4814823,57 45,56.4868222 45,55.8537852 L45,52 C26.7746033,52 12,37.2253967 12,19 L8.1463758,19 C7.93425754,19 7.72629985,18.9447746 7.54564757,18.8404703 C7.00651638,18.5291886 6.83841938,17.8667866 7.17019242,17.360954 L12.9481587,8.55166657 C13.0494942,8.39716703 13.1880739,8.26714645 13.352744,8.17206981 Z M54,8 C55.1045695,8 56,8.8954305 56,10 L56,36 C56,37.1045695 55.1045695,38 54,38 C53.8785184,38 53.7595665,37.989169 53.6440574,37.9684201 C53.5296327,37.9864772 53.4114622,37.9941839 53.2910712,37.991188 C51.845062,37.9552046 50.4140185,37.8091649 49.0068318,37.5557404 C47.9197506,37.3599646 47.1972047,36.3200035 47.3929805,35.2329223 C47.5887563,34.1458411 48.6287174,33.4232952 49.7157986,33.619071 C50.4695544,33.7548172 51.2315731,33.8546452 52.0001187,33.9179728 L52,12 L30.0820688,12.0003913 C30.1286335,12.5653513 30.1949284,13.1268504 30.2807367,13.6842145 C30.4488091,14.7759221 29.7000549,15.7971756 28.6083473,15.965248 C27.5166397,16.1333204 26.4953863,15.3845662 26.3273138,14.2928586 C26.1099185,12.8807758 26,11.4469294 26,10 C26,8.8954305 26.8954305,8 28,8 L54,8 Z M39.5559785,29.1687547 C40.5399644,29.9114732 41.5795084,30.5776207 42.665443,31.1606172 C43.6386337,31.6830859 44.0040161,32.8955575 43.4815474,33.8687482 C42.9590787,34.841939 41.7466071,35.2073214 40.7734164,34.6848527 C39.5063386,34.0046073 38.2937189,33.2275516 37.1461698,32.3613746 C36.2645521,31.6959243 36.0893139,30.441778 36.7547641,29.5601603 C37.4202144,28.6785427 38.6743608,28.5033044 39.5559785,29.1687547 Z M32.5152963,20.7089552 C33.0660039,21.8114867 33.7012053,22.8698628 34.4146073,23.8749044 C35.053961,24.7756267 34.84208,26.0241049 33.9413577,26.6634586 C33.0406354,27.3028124 31.7921572,27.0909313 31.1528035,26.190209 C30.3206678,25.0178953 29.5795626,23.7830617 28.9368632,22.4963601 C28.443285,21.5082031 28.8442203,20.3070193 29.8323773,19.8134411 C30.8205343,19.3198629 32.0217181,19.7207982 32.5152963,20.7089552 Z" id="Shape" fill="#000000"></path>
    </g>
</svg>