<?xml version="1.0" encoding="UTF-8"?>
<svg width="64px" height="64px" viewBox="0 0 64 64" version="1.1" xmlns="http://www.w3.org/2000/svg" xmlns:xlink="http://www.w3.org/1999/xlink">
    <title>thermostat_mode</title>
    <g id="thermostat_mode" stroke="none" stroke-width="1" fill="none" fill-rule="evenodd">
        <path d="M32,50 C33.6568542,50 35,51.3431458 35,53 C35,54.6568542 33.6568542,56 32,56 C30.3431458,56 29,54.6568542 29,53 C29,51.3431458 30.3431458,50 32,50 Z M23,50 C24.6568542,50 26,51.3431458 26,53 C26,54.6568542 24.6568542,56 23,56 C21.3431458,56 20,54.6568542 20,53 C20,51.3431458 21.3431458,50 23,50 Z M41,50 C42.6568542,50 44,51.3431458 44,53 C44,54.6568542 42.6568542,56 41,56 C39.3431458,56 38,54.6568542 38,53 C38,51.3431458 39.3431458,50 41,50 Z M32,8 C45.254834,8 56,18.745166 56,32 C56,39.7350127 52.3407961,46.6153726 46.6590168,51.0044512 C46.200186,49.7005928 45.3035429,48.6040768 44.1459469,47.8899035 C45.9708568,46.4933247 47.5481324,44.7893142 48.8004763,42.8552161 L46.2224319,41.3660254 C45.7441392,41.089883 45.5802641,40.4782926 45.8564065,40 C46.1325488,39.5217074 46.7441392,39.3578322 47.2224319,39.6339746 L49.8026166,41.1232699 C51.063807,38.667313 51.8316884,35.9162421 51.9753852,33.0010117 L49,33 C48.4477153,33 48,32.5522847 48,32 C48,31.4477153 48.4477153,31 49,31 L51.97547,31.0007105 C51.8319986,28.0850049 51.0641391,25.3334675 49.8028001,22.8770069 L47.2224319,24.3660254 C46.7441392,24.6421678 46.1325488,24.4782926 45.8564065,24 C45.5802641,23.5217074 45.7441392,22.910117 46.2224319,22.6339746 L48.8008394,21.1451773 C47.2618148,18.7680072 45.2319928,16.7381852 42.8548227,15.1991606 L41.3660254,17.7775681 C41.089883,18.2558608 40.4782926,18.4197359 40,18.1435935 C39.5217074,17.8674512 39.3578322,17.2558608 39.6339746,16.7775681 L41.1229931,14.1971999 C38.6668125,12.9360047 35.9156225,12.1681765 33.0002866,12.0245791 L33,15 C33,15.5522847 32.5522847,16 32,16 C31.4477153,16 31,15.5522847 31,15 L31.0007105,12.02453 C28.0850049,12.1680014 25.3334675,12.9358609 22.8770069,14.1971999 L24.3660254,16.7775681 C24.6421678,17.2558608 24.4782926,17.8674512 24,18.1435935 C23.5217074,18.4197359 22.910117,18.2558608 22.6339746,17.7775681 L21.1451773,15.1991606 C18.7680072,16.7381852 16.7381852,18.7680072 15.1991606,21.1451773 L17.7775681,22.6339746 C18.2558608,22.910117 18.4197359,23.5217074 18.1435935,24 C17.8674512,24.4782926 17.2558608,24.6421678 16.7775681,24.3660254 L14.1971999,22.8770069 C12.9358609,25.3334675 12.1680014,28.0850049 12.02453,31.0007105 L15,31 C15.5522847,31 16,31.4477153 16,32 C16,32.5522847 15.5522847,33 15,33 L12.0246149,33.0010118 C12.168312,35.9162435 12.9361961,38.6673273 14.1974139,41.1234097 L16.7775681,39.6339746 C17.2558608,39.3578322 17.8674512,39.5217074 18.1435935,40 C18.4197359,40.4782926 18.2558608,41.089883 17.7775681,41.3660254 L15.1992008,42.8548847 C16.4516393,44.7893797 18.0291038,46.4938453 19.8542864,47.8909735 C18.6964571,48.6040768 17.799814,49.7005928 17.3402301,51.0033454 C11.6592039,46.6153726 8,39.7350127 8,32 C8,18.745166 18.745166,8 32,8 Z M37.6648885,22.5678136 L41.4163419,21.318747 C41.9402852,21.1440993 42.5066052,21.4272592 42.681253,21.9512026 C42.7496752,22.1564694 42.7496752,22.3783913 42.681253,22.5836581 L41.4321864,26.3351115 C43.9757237,30.5628425 43.4243864,36.1319628 39.7781746,39.7781746 C35.4824074,44.0739418 28.5175926,44.0739418 24.2218254,39.7781746 C19.9260582,35.4824074 19.9260582,28.5175926 24.2218254,24.2218254 C27.8680372,20.5756136 33.4371575,20.0242763 37.6648885,22.5678136 Z M27.0502525,27.0502525 C24.3165825,29.7839226 24.3165825,34.2160774 27.0502525,36.9497475 C29.7839226,39.6834175 34.2160774,39.6834175 36.9497475,36.9497475 C39.6834175,34.2160774 39.6834175,29.7839226 36.9497475,27.0502525 C34.2160774,24.3165825 29.7839226,24.3165825 27.0502525,27.0502525 Z" id="Shape" fill="#000000" fill-rule="nonzero"></path>
    </g>
</svg>