<!-- Snelkoelen (droplet + snowflake) -->
<svg xmlns="http://www.w3.org/2000/svg" viewBox="0 0 64 64" width="256" height="256" fill="none" stroke="currentColor" stroke-width="3" stroke-linecap="round" stroke-linejoin="round">
    <!-- Droplet -->
    <path d="M32 6
           C32 6, 18 24, 18 34
           a14 14 0 0 0 28 0
           C46 24, 32 6, 32 6 Z"/>
    <!-- Snowflake -->
    <g transform="translate(32 38)">
        <line x1="-10" y1="0" x2="10" y2="0"/>
        <line x1="0" y1="-10" x2="0" y2="10"/>
        <line x1="-7.07" y1="-7.07" x2="7.07" y2="7.07"/>
        <line x1="-7.07" y1="7.07" x2="7.07" y2="-7.07"/>
        <!-- small branches -->
        <g stroke-width="2">
            <line x1="6" y1="0" x2="9" y2="-3"/>
            <line x1="6" y1="0" x2="9" y2="3"/>
            <line x1="-6" y1="0" x2="-9" y2="-3"/>
            <line x1="-6" y1="0" x2="-9" y2="3"/>
            <line x1="0" y1="6" x2="3" y2="9"/>
            <line x1="0" y1="6" x2="-3" y2="9"/>
            <line x1="0" y1="-6" x2="3" y2="-9"/>
            <line x1="0" y1="-6" x2="-3" y2="-9"/>
        </g>
    </g>
</svg>
