<?xml version="1.0" encoding="UTF-8"?>
<svg width="960px" height="960px" viewBox="0 0 960 960" version="1.1" xmlns="http://www.w3.org/2000/svg" xmlns:xlink="http://www.w3.org/1999/xlink">
    <title>assets / capabilities / time-remaining 2</title>
    <g id="assets-/-capabilities-/-time-remaining" stroke="none" stroke-width="1" fill="none" fill-rule="evenodd">
        <path d="M661.684865,96.7991855 C681.640397,106.275802 690.135237,130.135272 680.65862,150.090804 C671.182004,170.046336 647.322533,178.541175 627.367001,169.064559 C581.732027,147.393117 531.714553,136 480,136 C457.90861,136 440,118.09139 440,96 C440,73.90861 457.90861,56 480,56 C543.649061,56 605.381974,70.0616916 661.684865,96.7991855 Z M891.664572,378.094881 C896.957834,399.542746 883.861941,421.220712 862.414076,426.513973 C840.966212,431.807235 819.288246,418.711341 813.994984,397.263477 C801.756946,347.675943 778.576259,301.647016 746.333612,262.260766 C732.339951,245.166704 734.853323,219.965125 751.947385,205.971464 C769.041448,191.977803 794.243027,194.491175 808.236687,211.585237 C847.967158,260.118295 876.56074,316.895382 891.664572,378.094881 Z M819.317501,734.280964 C806.057286,751.950039 780.984142,755.524127 763.315067,742.263912 C745.645992,729.003697 742.071905,703.930553 755.33212,686.261478 C785.858142,645.585926 807.053256,598.661756 817.180584,548.534056 C821.555333,526.880163 842.655716,512.872649 864.309609,517.247397 C885.963502,521.622146 899.971017,542.722529 895.596268,564.376422 C883.097462,626.242334 856.943715,684.144492 819.317501,734.280964 Z M497.860464,903.629983 C475.788079,904.546116 457.152202,887.395584 456.236069,865.323198 C455.319937,843.250812 472.470468,824.614936 494.542854,823.698803 C546.060419,821.560524 595.589201,808.059682 640.347335,784.430536 C659.883398,774.116869 684.081386,781.593099 694.395053,801.129162 C704.70872,820.665226 697.232491,844.863214 677.696427,855.176881 C622.478395,884.328117 561.332915,900.995506 497.860464,903.629983 Z M163.286825,761.908061 C148.593601,745.411435 150.055547,720.127065 166.552173,705.433841 C183.048799,690.740617 208.333169,692.202563 223.026393,708.69919 C256.924892,746.758289 298.8656,776.938556 345.765651,796.8365 C366.102434,805.464639 375.594165,828.945348 366.966026,849.282131 C358.337887,869.618913 334.857178,879.110644 314.520396,870.482505 C256.688348,845.946523 205.027108,808.771421 163.286825,761.908061 Z M61.2513209,413.116046 C64.7114286,391.297312 85.2039791,376.414705 107.022713,379.874812 C128.841448,383.33492 143.724055,403.82747 140.263947,425.646205 C137.431759,443.505409 136.000008,461.659282 136.000008,480.070777 C136.006647,513.131441 140.666125,545.527206 149.737096,576.598097 C155.928113,597.804248 143.755941,620.01404 122.54979,626.205056 C101.34364,632.396072 79.1338476,620.223901 72.9428313,599.01775 C61.7524681,560.687285 56.0081753,520.74917 56.0000079,480.078826 C56.0000079,457.461334 57.7621846,435.117829 61.2513209,413.116046 Z M266.747689,113.458482 C285.833082,102.332958 310.323869,108.785707 321.449393,127.8711 C332.574917,146.956493 326.122168,171.447281 307.036775,182.572804 C263.022974,208.229944 225.126902,243.436227 196.265609,285.434803 C183.753947,303.64161 158.851708,308.258438 140.644901,295.746776 C122.438094,283.235114 117.821266,258.332874 130.332928,240.126067 C165.874999,188.405711 212.525305,145.066551 266.747689,113.458482 Z M479.994532,56 C502.085922,56 519.995038,73.9081042 519.995038,95.9994942 C519.995038,118.090884 502.086933,135.999721 479.995543,136 C470.311723,136.000122 460.681022,136.399382 451.118543,137.193017 C429.102846,139.020204 409.77437,122.654183 407.947183,100.638486 C406.119997,78.6227898 422.486017,59.2943138 444.501714,57.4671269 C456.264089,56.4909118 468.10195,56 479.994532,56 Z" id="Oval" fill="#000000" fill-rule="nonzero" transform="translate(476.198115, 479.832521) rotate(11.000000) translate(-476.198115, -479.832521) "></path>
        <path d="M809.859562,734.995819 C851.84327,673.436069 876.389437,599.034627 876.389437,518.900121 C876.389437,306.822777 704.466781,134.900121 492.389437,134.900121" id="Path" stroke="#000000" stroke-width="80" transform="translate(684.389437, 434.947970) rotate(11.000000) translate(-684.389437, -434.947970) "></path>
        <path d="M480,192 C639.058008,192 768,320.941992 768,480 C768,569.466413 727.205337,649.404722 663.20272,702.228218 L476.198115,480 L474.414878,192.053074 C476.272334,192.017744 478.134095,192 480,192 Z" id="Combined-Shape" fill="#000000"></path>
    </g>
</svg>