<?xml version="1.0" encoding="UTF-8"?>
<svg width="600px" height="600px" viewBox="0 0 600 600" version="1.1" xmlns="http://www.w3.org/2000/svg" xmlns:xlink="http://www.w3.org/1999/xlink">
    <title>assets/icon</title>
    <g id="/assets/icon" stroke="none" stroke-width="1" fill="none" fill-rule="evenodd">
        <g id="icon" transform="translate(0.000000, 17.000000)" fill="#15BFFF" fill-rule="nonzero">
            <path d="M207.182194,402 L232.277941,420.088787 L219.297382,438.177574 C244.393129,464.018699 246.989241,504.503127 225.354976,532.928365 C199.393859,566.521826 151.798477,574.274164 117.183654,549.29441 C83.4342014,526.037398 74.7804956,479.523374 98.1455012,445.929912 C99.0108718,445.068541 99.0108718,444.20717 99.8762424,444.20717 C121.510507,414.920562 161.317553,405.445483 194.201635,420.088787 L207.182194,402 Z M124.971989,463.157328 C110.260689,482.968857 113.722172,510.532723 133.625695,525.176027 C134.491065,525.176027 134.491065,526.037398 135.356436,526.037398 C156.12533,540.680702 184.682559,536.373848 200.259229,515.700948 C214.970529,495.889419 211.509047,468.325553 191.605524,453.682249 C190.740153,452.820878 189.874782,452.820878 189.874782,452.820878 C169.105889,438.177574 140.54866,442.484429 124.971989,463.157328 Z" id="Combined-Shape"></path>
            <path d="M303.159134,0.0651716825 C342.80018,1.79250277 373.823608,33.7481278 376.408894,73.4767427 C377.270656,108.88703 353.141323,140.842655 317.809086,147.751979 L317.809086,202.162908 C367.791275,209.072233 404.847036,252.25551 403.985274,302.348111 C403.123512,360.213703 357.450132,405.987976 300.573848,405.987976 C243.697564,406.851642 196.30066,361.077368 195.438898,304.075442 L195.438898,303.211777 L195.438898,303.211777 C195.438898,297.166118 196.30066,291.984125 197.162422,285.938466 L144.594947,269.528821 C130.806757,293.711456 104.953901,307.530105 77.3775203,307.530105 C69.6216633,307.530105 61.0040445,305.802774 53.2481875,304.075442 C13.6071409,291.984125 -8.79866807,249.664513 3.26599829,209.935898 L3.26599829,209.072233 L3.26599829,209.072233 C13.6071409,177.980273 43.7688068,156.388635 76.5157584,157.2523 C84.2716153,157.2523 92.8892341,158.979631 100.645091,160.706962 C119.603853,166.752621 135.977328,180.57127 145.456709,197.844581 C152.350804,210.799564 154.93609,225.481878 153.212566,240.164192 L205.780041,256.573838 C223.015279,226.345544 253.176944,206.481236 286.785658,202.162908 L286.785658,147.751979 C250.591659,140.842655 223.87704,109.750696 222.153517,73.4767427 C224.738802,31.1571312 260.932801,-1.6621594 303.159134,0.0651716825 Z M300.573848,236.70953 C262.97475,236.70953 232.494659,266.4836 232.494659,303.211777 C232.494659,339.939954 262.97475,369.714024 300.573848,369.714024 C338.172946,369.714024 368.653037,339.939954 368.653037,303.211777 C368.653037,266.4836 338.172946,236.70953 300.573848,236.70953 Z M78.2392821,186.616929 C58.4187588,186.616929 40.3217593,198.708246 34.2894261,217.708888 C26.5335691,241.027858 39.4599974,266.937824 62.7275682,274.710814 L63.5893301,274.710814 L63.5893301,274.710814 C67.8981395,276.438145 73.0687108,277.301811 78.2392821,277.301811 C98.0598054,277.301811 116.156805,265.210493 122.189138,246.209851 C125.636186,234.982199 124.774424,222.027216 119.603853,211.663229 C113.571519,201.299243 104.092139,193.526253 92.8892341,189.207925 C88.5804247,187.480594 83.4098534,186.616929 78.2392821,186.616929 Z M300.573848,29.4298001 C274.873199,29.4298001 254.038706,49.5369643 254.038706,74.3404083 C254.038706,99.1438523 274.873199,119.251016 300.573848,119.251016 C326.274497,119.251016 347.10899,99.1438523 347.10899,74.3404083 C347.10899,49.5369643 326.274497,29.4298001 300.573848,29.4298001 Z" id="Combined-Shape"></path>
            <path d="M523.267227,159 C555.976561,159 586.103578,179.67052 596.432841,210.676301 C602.458245,229.624277 600.736701,250.294798 592.128981,267.520231 C582.66049,285.606936 566.305824,298.526012 547.368841,304.554913 C539.621894,307.138728 531.874947,308 523.267227,308 C495.722526,308 469.899368,293.358382 456.127017,270.104046 L435.468491,276.99422 L426,249.433526 L446.658526,242.543353 C443.215438,206.369942 464.734737,172.780347 499.165614,162.445087 C506.912561,159.861272 514.659508,159 523.267227,159 Z M523.267227,188.283237 C518.102596,188.283237 513.798736,189.144509 508.634105,190.867052 C484.532491,197.757225 471.620912,222.734104 478.507087,246.849711 L478.507087,247.710983 L478.507087,247.710983 C484.532491,266.65896 502.608701,278.716763 522.406456,278.716763 C527.571087,278.716763 531.874947,277.855491 537.039578,276.132948 C548.229613,272.687861 558.558876,264.075145 563.723508,253.739884 C568.888139,243.404624 570.609683,230.485549 566.305824,219.289017 C560.28042,200.34104 543.064982,188.283237 523.267227,188.283237 Z" id="Combined-Shape"></path>
            <path d="M392.868546,403 L405.781928,421.130463 C439.35672,406.453421 478.096864,415.95033 499.619166,445.304413 C523.724145,478.111916 516.837008,524.733106 484.123109,548.907056 C484.123109,549.770411 483.262217,549.770411 483.262217,550.633767 C448.826533,574.807717 401.477467,567.900874 375.650704,534.230015 C354.128402,505.739288 356.711078,465.161586 380.816057,439.260925 L367.902676,421.130463 L392.868546,403 Z M437.634935,444.441057 C428.165122,444.441057 418.695309,447.894479 410.94728,453.074611 C391.146762,466.888297 385.98141,495.379024 399.755683,515.236197 C399.755683,516.099552 400.616575,516.099552 400.616575,516.962908 C416.112633,536.820081 444.522072,542.000213 465.183483,527.323172 C484.984001,513.509486 490.149353,485.018759 476.37508,465.161586 C476.37508,464.298231 475.514188,464.298231 475.514188,463.434875 C466.905267,450.484545 452.270101,443.577702 437.634935,444.441057 Z" id="Combined-Shape"></path>
        </g>
    </g>
</svg>