<?xml version="1.0" encoding="UTF-8"?>
<svg width="960px" height="960px" viewBox="0 0 960 960" version="1.1" xmlns="http://www.w3.org/2000/svg" xmlns:xlink="http://www.w3.org/1999/xlink">
    <title>drivers/microwave/assets/icon</title>
    <g id="/drivers/microwave/assets/icon" stroke="none" fill="none" fill-rule="nonzero">
        <path d="M230.433493,180.217807 L906.776989,215.045342 C935.483062,216.523529 958,240.229784 958,268.973891 L958,647.356699 C958,675.906499 935.776551,699.523182 907.279589,701.257018 L843.54494,705.134736 L843.095418,712.023449 C842.200078,725.717082 834.349623,737.983445 822.319396,744.53787 L821.882754,744.772282 C812.090568,749.951629 801.415057,751.996569 789.482288,752.106604 L789.296475,752.107885 L788.683021,752.110692 L788.5,752.111111 C775.657603,752.111111 764.434817,749.978261 754.114386,743.9431 C742.780469,737.315275 735.420815,725.547318 734.42228,712.455768 L734.36994,711.776736 L336.85594,735.962736 L335.889069,750.763631 C334.99441,764.455148 327.146737,776.720282 315.119643,783.275975 L314.683114,783.510434 C304.70274,788.79178 293.761223,790.885953 281.48386,791 L280.5,791 C267.309856,791 255.828562,788.817004 245.340152,782.680753 C234.009687,776.051858 226.652915,764.28545 225.654967,751.196301 L225.01194,742.767736 L208.866354,743.750462 C202.338138,744.147657 195.795399,743.355436 189.556186,741.415784 L188.837642,741.186889 C188.638404,741.121885 188.43968,741.055316 188.241489,740.987189 L187.825293,740.844123 C187.627108,740.775998 187.429462,740.706317 187.232372,740.635085 L38.6454676,686.933287 C17.2535508,679.201889 3,658.894515 3,636.148337 L3,291.68401 C3,267.983859 18.4535848,247.053628 41.1035556,240.076811 L179.496936,197.447823 C183.020449,196.362484 186.641534,195.64217 190.303152,195.295469 L191.10594,195.226736 L191.387107,194.927249 C195.464895,190.631895 200.420768,187.108116 206.057615,184.652868 L206.556747,184.439009 L206.687042,184.384104 C214.187396,181.223507 222.305179,179.799248 230.433493,180.217807 Z M297.931,718.19335 L263.414,720.29335 L265.539213,748.15543 C268.780608,750.05181 273.767537,751 280.5,751 L281.126556,751 C287.553305,750.939812 292.502517,749.992548 295.974194,748.15543 L297.931,718.19335 Z M804.622,687.36335 L772.772,689.30135 L774.306433,709.413674 C777.381602,711.211965 782.112791,712.111111 788.5,712.111111 L789.113454,712.108304 C795.201367,712.052166 799.890431,711.153956 803.180645,709.413674 L804.622,687.36335 Z M222.219977,221.245031 L222.089682,221.299936 C220.220281,222.087689 219.004827,223.918834 219.004827,225.947433 L219.004827,228.827447 C219.004827,229.015113 218.996526,229.200839 218.980272,229.38428 L216.167274,694.919388 C216.144292,698.723639 218.780468,701.923727 222.333993,702.756667 L904.525215,661.24751 C911.913333,660.79797 917.67494,654.675135 917.67494,647.273354 L917.67494,268.867731 C917.67494,262.738394 913.725782,257.492623 908.182802,255.61017 C907.082149,255.266539 905.921984,255.054312 904.71996,254.992415 L228.376464,220.16488 C226.269124,220.056364 224.164513,220.425617 222.219977,221.245031 Z M198.945,235.05435 L195.39338,235.055023 C194.81558,235.055023 194.239126,235.090791 193.667284,235.161838 L191.404,699.61035 L196.96173,701.620176 C196.429051,699.434885 196.152993,697.149691 196.167117,694.798564 L198.945,235.05435 Z M173.638,241.10735 L52.8786996,278.304366 C47.0064849,280.11317 43,285.539527 43,291.68401 L43,636.148337 C43,642.045494 46.695365,647.310369 52.2414175,649.314805 L171.439,692.39435 L173.638,241.10735 Z M289.318106,298.306979 L289.594799,298.311951 L858.999212,316.086782 C864.397952,316.255312 868.687199,320.680544 868.687199,326.081913 L868.687199,606.760328 C868.687199,612.154687 864.408692,616.576826 859.017272,616.754879 L289.612859,635.559646 C283.963721,635.746211 279.282786,631.217313 279.282786,625.565095 L279.282786,308.307082 C279.282786,302.847054 283.651247,298.433815 289.043079,298.309664 L289.318106,298.306979 Z M299.282786,318.624082 L299.282786,615.229082 L848.686786,597.084082 L848.686786,335.774082 L299.282786,318.624082 Z M324.233989,332.576057 L324.513956,332.579062 L692.414681,341.506122 C697.841425,341.637801 702.172103,346.074837 702.172103,351.50318 L702.172103,579.997673 C702.172103,585.390715 697.895612,589.812272 692.505569,589.992112 L324.604844,602.267164 C318.954436,602.455691 314.271379,597.926278 314.271379,592.272726 L314.271379,342.57612 C314.271379,337.145552 318.594494,332.745045 323.955772,332.580809 L324.233989,332.576057 Z M334.271379,352.82212 L334.271379,581.93312 L682.171379,570.32612 L682.171379,361.26312 L334.271379,352.82212 Z M792.131142,510.706773 C810.618129,510.706773 825.403297,526.225988 825.403297,545.134332 C825.403297,551.575663 823.687481,557.623687 820.694015,562.798857 C815.198646,573.028845 804.956665,580 793,580 L785,580 C767.072619,580 753,564.32822 753,545.5 C753,526.67178 767.072619,511 785,511 L787.764006,510.999478 C789.192147,510.806422 790.64976,510.706773 792.131142,510.706773 Z M793,531 L789.471386,530.999317 C783.484933,532.332943 778.858988,538.07658 778.858988,545.134332 C778.858988,553.207924 784.912416,559.56189 792.131142,559.56189 C796.758728,559.56189 800.907437,556.950734 803.289538,552.949292 C804.36878,550.794782 805,548.257746 805,545.5 C805,537.266267 799.373148,531 793,531 Z M756.975334,342.630657 L811.442338,343.632895 L811.442338,374.160887 L756.975334,374.160887 L756.975334,342.630657 Z" id="Combined-Shape" fill="#000000"></path>
    </g>
</svg>