<?xml version="1.0" encoding="UTF-8"?>
<svg width="960px" height="960px" viewBox="0 0 960 960" version="1.1" xmlns="http://www.w3.org/2000/svg" xmlns:xlink="http://www.w3.org/1999/xlink">
    <title>drivers/airconditioning/assets/icon/ assets/icon</title>
    <g id="/drivers/airconditioning/assets/icon" stroke="none" fill="none" fill-rule="nonzero">
        <path d="M854.232617,251.200995 C857.769697,252.616446 862.018053,254.476735 866.963216,256.756541 L868.295085,257.373459 C874.107682,260.078144 880.70534,263.281012 887.424988,266.65426 L888.909225,267.401815 C902.415726,274.230786 914.351996,280.687687 920.801639,284.788416 C921.818633,285.436226 927.22693,288.620846 928.818063,289.621928 C946.688074,300.86507 956.960175,317.081493 956.960175,340.4722 L956.959518,534.015439 L956.983226,534.380975 C959.05815,570.765141 938.356766,599.068301 902.720718,613.777517 L901.613819,614.228101 C886.048248,620.442918 866.168253,624.822785 841.604984,627.602781 L840.600518,627.714439 L840.599079,628.44355 C840.344072,647.595459 826.328762,665.927678 804.348162,667.983918 L803.328038,668.067208 L167.291833,712.477548 C152.408921,713.516726 138.184539,706.186883 130.393378,693.463724 C126.851875,687.680363 123.542566,681.885317 120.468289,676.080833 L120.005518,675.201439 L119.876591,675.21239 C102.749801,676.610419 94.3056521,677.204289 90.0093123,677.246033 L89.9205178,677.246439 L89.8670383,677.249421 C89.7955456,677.252852 89.7026272,677.257312 89.5816945,677.263112 L89.4511796,677.269371 C87.6470692,677.355876 86.3043633,677.395858 84.5596054,677.378964 C81.8985945,677.353198 79.2294178,677.176207 76.4498493,676.793222 C69.2428225,675.800198 62.1512522,673.522838 55.3602473,669.736046 C50.1905342,666.85712 39.3726047,660.168703 20.9295113,648.50342 C9.33833106,641.171983 2.31151782,628.413104 2.31151782,614.69795 L2.31151782,309.657218 C2.31151782,301.202336 4.99059502,292.964892 9.964108,286.127554 C22.9209114,268.315186 42.6674558,259.243163 65.0916729,258.981571 C71.2032916,258.910276 145.790536,256.972655 421.724748,249.752412 C422.121109,249.742041 422.121109,249.742041 422.51747,249.731669 C673.31333,243.169238 771.821339,240.619632 780.840493,240.503535 C808.334166,240.149627 834.953725,243.502337 854.232617,251.200995 Z M752.489157,566.806968 C749.657281,567.009945 746.340613,567.240402 742.539154,567.498113 L742.535449,575.166353 C742.535449,580.6892 738.058296,585.166353 732.535449,585.166353 C727.012601,585.166353 722.535449,580.6892 722.535449,575.166353 L722.538802,568.816577 C715.566163,569.266533 707.732668,569.764287 699.038319,570.309302 L699.035449,578.097149 C699.035449,583.619997 694.558296,588.097149 689.035449,588.097149 C683.512601,588.097149 679.035449,583.619997 679.035449,578.097149 L679.038402,571.55251 C671.826237,571.997438 664.159696,572.467108 656.038781,572.961313 L656.035449,580.954048 C656.035449,586.476896 651.558296,590.954048 646.035449,590.954048 C640.512601,590.954048 636.035449,586.476896 636.035449,580.954048 L636.037732,574.172613 C628.379163,574.634324 620.379208,575.114347 612.037868,575.612548 L612.035449,583.836003 C612.035449,589.35885 607.558296,593.836003 602.035449,593.836003 C596.512601,593.836003 592.035449,589.35885 592.035449,583.836003 L592.036225,576.803136 C584.29609,577.262369 576.29602,577.735364 568.036015,578.222031 L568.035449,586.676098 C568.035449,592.198946 563.558296,596.676098 558.035449,596.676098 C552.512601,596.676098 548.035449,592.198946 548.035449,586.676098 L548.039102,579.397121 C540.407242,579.844453 532.573941,580.302326 524.539199,580.770681 L524.535449,589.442771 C524.535449,594.965619 520.058296,599.442771 514.535449,599.442771 C509.012601,599.442771 504.535449,594.965619 504.535449,589.442771 L504.538825,581.93399 C503.893029,581.971473 503.246031,582.009017 502.597831,582.046624 C495.463728,582.435424 488.440638,582.815419 481.528888,583.186825 L481.535449,592.137433 C481.535449,597.66028 477.058296,602.137433 471.535449,602.137433 C466.012601,602.137433 461.535449,597.66028 461.535449,592.137433 L461.527124,584.25434 C453.360849,584.687201 445.360792,585.107592 437.527548,585.515907 L437.535449,594.853377 C437.535449,600.376225 433.058296,604.853377 427.535449,604.853377 C422.012601,604.853377 417.535449,600.376225 417.535449,594.853377 L417.533286,586.550779 C409.509229,586.963144 401.674493,587.362229 394.029791,587.748509 L394.035449,597.49731 C394.035449,603.020158 389.558296,607.49731 384.035449,607.49731 C378.512601,607.49731 374.035449,603.020158 374.035449,597.49731 L374.034746,588.751562 C366.14284,589.144599 358.473459,589.523184 351.027504,589.887912 L351.035449,600.070643 C351.035449,605.59349 346.558296,610.070643 341.035449,610.070643 C335.512601,610.070643 331.035449,605.59349 331.035449,600.070643 L331.030031,590.860548 C322.715929,591.262103 314.715154,591.645065 307.029191,592.010418 L307.035449,602.662436 C307.035449,608.185284 302.558296,612.662436 297.035449,612.662436 C291.512601,612.662436 287.035449,608.185284 287.035449,602.662436 L287.031474,592.955351 C278.769948,593.34353 270.934347,593.709182 263.526995,594.053845 L263.535449,605.183629 C263.535449,610.706477 259.058296,615.183629 253.535449,615.183629 C248.012601,615.183629 243.535449,610.706477 243.535449,605.183629 L243.52703,594.982977 C235.165582,595.371366 227.49726,595.728322 220.526818,596.056991 L220.535449,607.635669 C220.535449,613.158517 216.058296,617.635669 210.535449,617.635669 C205.012601,617.635669 200.535449,613.158517 200.535449,607.635669 L200.533876,597.019744 C179.98452,598.040398 169.357072,598.709375 168.903536,599.193493 C165.903608,602.393804 162.088824,606.232284 157.937162,612.795159 C155.169388,617.166444 150.763531,623.352998 144.719592,631.347644 C144.828054,632.088368 145.02547,632.955192 145.311841,633.948182 C145.394614,634.234821 145.484648,634.531806 145.582087,634.839297 C145.641422,635.026936 145.703291,635.217437 145.767886,635.411807 C145.919897,635.868791 146.087214,636.34818 146.26967,636.849056 C146.310816,636.962492 146.353336,637.078178 146.396648,637.194989 C147.150851,639.228469 148.144734,641.602266 149.378579,644.316996 L149.558852,644.712602 C149.601257,644.805289 149.643936,644.898363 149.686887,644.991825 C150.161596,646.024597 150.669625,647.104945 151.211008,648.232703 C151.221959,648.255519 151.232912,648.278324 151.243878,648.301148 C155.119177,656.374635 159.539775,664.465267 164.505672,672.574699 L800.541877,628.16436 L800.044518,627.66226 L799.477072,627.090058 C798.818086,626.421486 798.164963,625.751908 797.517703,625.081323 C797.219134,624.77159 796.922064,624.462274 796.626239,624.152743 C796.130128,623.634182 795.637671,623.114705 795.148715,622.594626 C795.06332,622.503135 794.976983,622.411159 794.890756,622.319164 L795.148715,622.594626 C794.808984,622.233271 794.470943,621.871625 794.134592,621.509688 C794.0372,621.404107 793.939205,621.298466 793.841353,621.192802 C792.924986,620.204172 792.021905,619.213311 791.131422,618.220278 C790.962056,618.030268 790.792888,617.84101 790.624176,617.651674 C790.47105,617.481025 790.318751,617.309638 790.166826,617.138188 C790.059993,617.016381 789.95274,616.895089 789.845675,616.773765 C789.274933,616.128339 788.710369,615.481721 788.15111,614.834187 C788.059994,614.72722 787.968369,614.620933 787.876887,614.514622 C780.51955,605.966893 774.086486,597.259059 768.576878,588.389367 C763.411819,580.087667 760.006486,574.132495 758.36088,570.517342 C757.256372,568.099878 754.932096,566.630643 752.489157,566.806968 Z M42.3120727,320.372581 L42.3115178,614.69795 C59.6835879,625.685809 70.5202171,632.394209 74.8214054,634.789468 C76.1553694,635.53331 77.4524287,636.070903 78.6964055,636.456563 C83.567416,636.446774 90.8810613,629.077508 108.818132,605.441142 C119.659919,591.077229 135.335518,581.006256 154.499152,574.789171 C170.049486,569.744317 187.443209,567.407272 204.833194,567.436156 C217.205614,567.454632 344.103963,559.99049 544.146364,547.673297 C574.309059,545.816092 607.092155,543.787666 640.035493,541.742978 L652.39195,540.97576 C752.59953,534.7515 851.444522,528.555993 879.696293,526.749898 C880.362131,526.707102 881.052928,526.657687 881.778987,526.60122 C881.873646,526.593858 881.967951,526.586462 882.062147,526.579012 L882.627979,526.533488 C883.954365,526.424965 885.355615,526.297625 887.505247,526.094694 C893.809437,525.499562 896.960415,525.238098 899.869072,525.165632 L900.339082,525.155514 C901.04229,525.143641 901.74047,525.140714 902.475516,525.147312 C908.296405,525.199561 912.973362,526.043742 916.960305,528.330275 L916.960633,352.361423 C912.601923,353.235035 907.20973,353.661677 900.594079,353.696529 C896.7455,353.716804 862.064062,354.671197 788.642736,356.761157 C786.647524,356.817951 611.512943,361.822373 554.83426,363.428594 C549.479747,363.580336 544.194733,363.729977 538.973182,363.877684 C328.090185,369.843164 205.270131,373.087427 180.705016,373.167415 C158.172743,373.240783 140.972709,370.933186 127.187532,366.343603 C116.074556,362.643693 108.287664,358.116378 98.5154066,350.641358 C97.856174,350.137096 97.1960161,349.627385 96.3186376,348.94651 C96.0682093,348.75217 95.7837009,348.53118 95.2558867,348.121177 C94.8318997,347.791907 94.5189724,347.549197 94.2130491,347.312484 C91.8253352,345.464949 90.1882072,344.241242 88.5386583,343.091865 C78.3113212,335.992718 62.8574152,328.371022 42.3120727,320.372581 Z M140.263394,603.300335 L140.236585,603.317656 C134.140381,607.286245 128.915948,612.012201 124.765669,617.510748 C118.815367,625.351706 114.234563,631.227112 110.362971,635.844247 C114.595131,635.507802 119.471538,635.111557 124.992229,634.654976 C124.971407,634.517721 124.950513,634.381182 124.930612,634.245271 C124.154757,628.946667 125.536205,623.55824 128.765644,619.286486 C133.923581,612.463803 137.782981,607.087719 140.263394,603.300335 Z M903.117821,545.142219 L902.666646,545.141513 C899.8788,545.151408 895.626921,545.416908 889.384941,546.006167 C886.671509,546.262322 885.078457,546.405007 883.329752,546.541008 C882.517539,546.604175 881.737952,546.659941 880.975695,546.708934 C864.182786,547.782481 822.475514,550.405171 770.369735,553.662688 C772.741968,555.853288 774.732951,558.494861 776.205407,561.48014 L776.252592,561.579689 L776.258806,561.59124 L776.308518,561.69126 L889.748919,554.394434 C878.966817,564.859768 869.97439,572.396233 862.771636,577.018073 C856.633855,580.949624 848.026456,584.566289 836.949439,587.865571 C858.131116,585.481148 874.741896,581.886734 886.781672,577.07965 C897.514558,572.77122 905.39956,567.188501 910.436678,560.336383 C913.723197,553.039023 911.79183,548.792933 907.000076,545.673134 C906.499426,545.347583 905.30682,545.157464 903.117821,545.142219 Z M101.901532,367.242077 C102.508199,367.240406 103,367.734748 103,368.346225 L103,443.537191 C103,443.922439 102.801319,444.278556 102.475411,444.477454 C101.958118,444.793117 101.281836,444.62452 100.964892,444.10096 L97.3236547,438.089067 C97.1120118,437.739806 97,437.339033 97,436.93103 L97,372.37476 C97,371.756362 97.2569548,371.165603 97.7085957,370.745605 L101.157363,367.53685 C101.360172,367.348066 101.625811,367.242077 101.901532,367.242077 Z M781.355343,280.500221 C760.561928,280.767881 81.1725288,298.7967 65.5582653,298.97885 C59.8760424,299.045137 54.9866028,300.136546 50.8899466,302.251954 C72.1385015,310.59272 88.4687289,318.697298 99.9577264,326.672226 C101.952282,328.061974 103.822995,329.460279 106.452295,331.494745 C106.769296,331.74003 107.090625,331.989257 107.523143,332.325152 C108.05372,332.737299 108.333943,332.954961 108.580268,333.146118 C109.424077,333.800941 110.050956,334.284957 110.666581,334.755862 C118.825487,340.996794 124.795895,344.468002 133.505302,347.367677 C145.045337,351.209771 160.135379,353.234287 180.639893,353.167521 C204.934633,353.088413 328.023525,349.837049 538.407647,343.885682 C543.628853,343.737984 548.913529,343.588352 554.267707,343.43662 C610.943559,341.83048 786.076328,336.82611 788.07366,336.769255 C862.37762,334.65417 896.380553,333.718449 900.488718,333.696806 C906.917182,333.662941 911.486049,333.201027 914.167825,332.497783 L914.361518,332.444218 L914.377534,332.409581 C914.600182,331.928321 914.859963,331.467753 915.1532,331.031552 C912.380811,325.37423 906.620686,323.181088 899.311714,318.525385 C894.117308,315.222758 882.742236,309.105842 870.860762,303.098495 L869.432917,302.379397 C863.238205,299.2697 856.967934,296.221113 851.419952,293.639558 L850.152833,293.052698 C845.974263,291.126363 842.259398,289.493531 839.37139,288.337822 C824.931352,282.571477 802.148758,280.232561 781.355343,280.500221 Z" id="Combined-Shape" fill="#000000"></path>
    </g>
</svg>