<?xml version="1.0" encoding="UTF-8"?>
<svg width="960px" height="960px" viewBox="0 0 960 960" version="1.1" xmlns="http://www.w3.org/2000/svg" xmlns:xlink="http://www.w3.org/1999/xlink">
    <title>drivers/vacuumcleaner/assets/icon</title>
    <g id="/drivers/vacuumcleaner/assets/icon" stroke="none" fill="none" fill-rule="nonzero">
        <path d="M255.489452,165.777218 C274.405394,166.107397 292.892039,167.784971 310.33762,170.719264 L310.506303,170.748007 L312.955612,171.170755 L313.125196,171.200401 C326.796387,173.620673 339.731807,176.808239 351.627561,180.700084 L352.454152,180.974033 L354.317092,180.786996 C395.043501,176.749668 437.411631,175.002459 480.543277,175.647147 L483.485244,175.694811 C601.688357,177.758054 712.911078,197.613703 797.943593,231.127458 C841.091325,248.133217 876.90491,268.426473 903.562799,291.502098 C931.179904,315.408042 949.292977,342.56827 955.495442,372.32561 L955.593152,372.805033 L955.672795,373.026452 C957.052117,376.967408 957.831956,381.189787 957.908441,385.584129 L957.908441,591.94063 C957.908441,594.801421 957.608032,597.592365 957.036973,600.283538 L956.968152,600.591033 L956.896544,601.159089 C952.689298,633.001813 934.860015,661.857172 906.336917,686.689844 L905.413112,687.489501 C878.509449,710.644141 841.977628,730.537916 797.752956,746.738058 C739.324652,768.141197 668.525664,782.710864 591.648986,789.306619 C593.126211,817.709912 603.155334,843.208354 621.990063,866.366767 C628.959524,874.93613 627.662547,887.532837 619.093183,894.502297 C610.523819,901.471758 597.927113,900.174781 590.957652,891.605417 C566.924841,862.055656 553.766056,828.66204 551.7335,791.982938 C544.308395,792.345575 536.836936,792.634744 529.326282,792.850336 C512.86589,816.807426 504.238678,852.987802 504.238678,901.673145 C504.238678,912.71884 495.284373,921.673145 484.238678,921.673145 C473.192983,921.673145 464.238678,912.71884 464.238678,901.673145 C464.238678,858.192022 470.528097,822.007411 483.471248,793.248846 C481.002796,793.221937 478.529474,793.186627 476.053349,793.143406 C470.055147,793.038707 464.074951,792.88819 458.115273,792.692397 C427.249049,824.726358 407.849079,849.866124 400.14194,867.17443 C395.648772,877.264961 383.826348,881.802521 373.735817,877.309353 C363.645286,872.816185 359.107726,860.993761 363.600894,850.90323 C371.13224,833.989709 385.34881,813.762795 406.348131,789.820076 C313.566644,782.543956 227.872983,764.156554 159.44718,736.859096 C116.106116,719.568821 80.2867906,698.938275 53.848369,675.471418 C25.7510285,650.532097 7.91301488,622.091487 3.03401258,591.006716 L2.96015184,590.521033 L2.94768803,590.477045 C2.14175733,587.418529 1.6889559,584.216745 1.63015184,580.917957 L1.63015184,388.581298 C1.63015184,387.697058 1.65884212,386.819524 1.71534225,385.949576 L1.74115184,385.598033 C1.69825685,384.253386 1.68075081,382.915039 1.68777352,381.575948 L1.70297475,380.236619 C2.17142315,353.399228 12.3692553,328.053942 30.6544522,305.369454 C42.4312109,290.759288 57.5231892,277.276691 75.5995339,264.925857 L76.4011518,264.380033 L76.4011518,263.015033 L76.342086,262.23013 C76.2482763,260.836878 76.2015389,259.439993 76.2022342,258.041077 L76.211655,256.991535 C76.5532983,237.418799 85.7534656,220.407818 100.616413,207.016787 C111.771729,196.96621 126.171105,188.888046 143.156337,182.524855 C174.002723,170.968849 213.727406,165.048259 255.489452,165.777218 Z M41.6219491,559.293292 L41.6301518,580.256919 L41.9835361,580.25725 C50.1532588,668.542882 225.737915,742.634054 447.606959,752.263949 C449.90695,751.954058 452.24913,752.046846 454.522705,752.539815 C461.883334,752.816429 469.294993,753.019346 476.751445,753.149499 C715.270213,757.312859 910.579813,685.466588 917.653902,591.942021 L917.908441,591.94063 L917.913695,571.980163 C860.354279,649.067027 683.805521,700.666209 476.509158,697.047837 C271.529009,693.469895 98.4791188,636.983568 41.6219491,559.293292 Z M41.6181773,447.984354 L41.6316323,500.319395 C41.7935848,501.06297 41.8726416,501.836914 41.8587833,502.630856 C41.1205431,544.924611 85.1984372,587.516643 164.700833,620.508587 C246.344146,654.38897 357.638193,674.96989 476.858206,677.050883 C596.078218,679.131876 708.022732,662.4476 790.798719,631.437166 C797.638104,628.874922 804.225015,626.234703 810.553509,623.522351 L776.667158,581.648932 C775.929481,580.737231 775.357925,579.702877 774.978618,578.593151 C773.192356,573.367148 775.980818,567.682583 781.206821,565.896321 C818.605786,553.119202 845.774147,541.773932 862.711731,531.860006 C879.201688,522.208085 893.537831,510.405735 905.719244,496.452155 C906.288889,495.800048 907.112509,495.425869 907.978384,495.425806 C909.635238,495.425685 910.978482,496.768733 910.978603,498.425587 L910.978603,538.628996 C910.978603,540.911622 910.781704,543.489497 910.387905,546.362619 C915.044805,537.021288 917.512521,527.502332 917.67981,517.918369 C917.691575,517.244354 917.769761,516.587081 917.90802,515.952679 L917.920997,460.684199 C851.51602,533.357552 678.272548,581.144077 476.44601,577.621182 C276.993745,574.139729 107.18779,521.553686 41.6181773,447.984354 Z M387.30956,219.138987 L387.178662,219.1476 C397.548488,226.659321 403.238287,235.441765 403.115492,245.532382 L403.113464,274.568414 C402.720494,292.793141 384.064409,306.479856 353.451957,315.818229 C325.560604,324.326527 288.409474,328.835173 248.989718,328.274894 C209.566436,327.714564 172.625303,322.15203 145.105295,312.852824 C128.348005,307.190417 115.309907,300.286488 107.080409,292.143749 C66.1356837,317.632006 42.2716789,348.004654 41.6968826,380.934716 C41.6521993,383.494618 41.7487093,386.043987 41.9835361,388.581629 L41.6301518,388.581298 L41.6279406,413.815633 C58.4547799,445.149521 98.5736189,475.17601 158.174411,499.909176 C241.513936,534.493454 355.110808,555.500221 476.795058,557.624228 C598.479308,559.748234 712.740105,542.718738 797.235836,511.064035 C859.047566,487.907457 900.680382,458.504258 917.909991,426.975656 L917.908441,386.244556 L917.299256,386.243188 C910.242545,330.378737 836.195858,280.409602 726.116047,249.182273 C654.860958,229.831162 570.925842,218.375405 482.743535,216.836177 C450.375348,216.271189 418.438598,217.053408 387.30956,219.138987 Z M116.998303,268.732544 L117.01817,268.85214 C117.095649,269.390331 117.130135,269.942028 117.118098,270.503545 C116.980597,276.917917 128.83229,286.243104 151.507792,293.905317 C176.908649,302.488446 211.814389,307.744494 249.273953,308.276913 C286.737044,308.809383 321.852702,304.54776 347.616407,296.688505 C370.659014,289.659324 382.976792,280.622599 383.11576,274.139785 L383.112152,274.189115 L383.113281,273.759266 C375.321042,278.474056 365.446869,282.550972 353.838789,286.012877 C326.248982,294.241052 289.498685,298.601357 250.503228,298.059497 C211.504005,297.517585 174.960997,292.138003 147.737682,283.144682 C135.261252,279.023048 124.862723,274.224031 116.998303,268.732544 Z M160.454236,218.855631 L159.806195,219.028506 C141.144072,225.648565 127.342453,234.370505 120.672067,244.34364 C123.242077,250.123413 134.602117,257.742219 154.011287,264.154109 C179.153723,272.460004 213.703949,277.546224 250.78111,278.061428 C287.862036,278.576684 322.620483,274.452706 348.122919,266.847053 C370.740339,260.101805 382.879257,251.436207 383.114591,245.42952 L383.114704,245.07969 C382.889319,239.147726 371.230282,230.325681 349.222571,223.055354 C324.080135,214.749459 289.529909,209.663239 252.452748,209.148035 C217.900067,208.66791 185.36396,212.215962 160.454236,218.855631 Z" id="Combined-Shape" fill="#000000"></path>
    </g>
</svg>