<?xml version="1.0" encoding="UTF-8"?>
<svg width="960px" height="960px" viewBox="0 0 960 960" version="1.1" xmlns="http://www.w3.org/2000/svg" xmlns:xlink="http://www.w3.org/1999/xlink">
    <title>drivers/soundbar/assets/icon</title>
    <g id="/drivers/soundbar/assets/icon" stroke="none" fill="none" fill-rule="nonzero">
        <path d="M823.76196,324.240246 L889.038902,334.904487 C928.450177,341.343076 957.388923,375.393159 957.388923,415.326904 C957.388923,455.212961 928.583446,489.266684 889.249625,495.880918 L181.209794,614.94235 C158.324763,618.790615 134.84204,616.889726 112.873937,609.410673 L61.8781812,592.049139 C22.7773696,578.737245 -1.84263962,540.066523 2.64151418,499.00593 C7.09809049,458.197858 38.7566001,425.659888 79.4272741,420.087092 L782.777926,323.712257 C796.38939,321.84718 810.203061,322.025139 823.76196,324.240246 Z M869.571875,379.96109 L159.342708,482.869359 C132.74502,486.80701 109.305265,511.517485 113.124181,538.508509 C115.531079,555.519786 123.470842,568.330863 135.671952,574.356947 C145.956165,576.712631 156.555016,577.426676 167.073316,576.467685 L587.663463,506.032732 L877.27398,457.334312 C886.333579,455.301298 898.31117,451.475174 906.122861,443.827482 C911.25346,438.350427 914.895739,431.507716 916.489532,423.962723 C917.81158,417.486462 917.650017,410.617951 915.831373,404.044591 L915.696094,403.575905 C913.262103,395.330459 908.326706,388.098557 901.697067,382.829933 C891.642994,375.822061 875.20057,379.048551 869.571875,379.96109 Z M788.208086,363.34196 L84.8574334,459.716795 C62.371948,462.797812 44.8689934,480.786991 42.4050981,503.348439 C39.9551405,525.782263 53.4065035,546.910359 74.7695829,554.183432 L99.226179,562.509132 C96.4148664,556.114507 94.4104153,549.007122 93.3214143,541.31037 C88.0057333,503.740631 118.368809,468.717349 156.413735,463.084994 L156.474768,463.076054 L829.014463,365.628732 L817.31269,363.716908 C807.683906,362.143862 797.874197,362.017485 788.208086,363.34196 Z" id="Combined-Shape" fill="#000000"></path>
    </g>
</svg>