<?xml version="1.0" encoding="UTF-8"?>
<svg width="960px" height="962px" viewBox="0 0 960 962" version="1.1" xmlns="http://www.w3.org/2000/svg" xmlns:xlink="http://www.w3.org/1999/xlink">
    <title>drivers/freestyle/assets/icon</title>
    <g id="/drivers/freestyle/assets/icon" stroke="none" fill="none" transform="translate(0, 2)" fill-rule="nonzero">
        <path d="M633.164493,10.5160622 C680.208652,27.7408863 723.803648,63.019073 755.479697,109.975816 C787.156088,156.933068 803.537517,210.564908 801.886026,260.633104 C800.12133,314.133334 777.823008,360.478988 737.356978,387.77367 C733.205927,390.573589 728.917228,393.1338 724.50262,395.450045 L724.448441,395.477679 L644.998441,442.330679 L644.999441,548.350679 L645.500837,548.848049 C647.364047,550.72231 649.100878,552.769936 650.696289,555.028338 L651.127884,555.649519 C656.064238,562.873755 659,571.481447 659,580.86059 L658.997441,581.042679 L659,581.348525 L659,862.399464 C659,865.031266 658.745695,867.604174 658.260221,870.094811 L658.234441,870.218679 L658.147044,870.715531 C655.777636,883.657032 648.747491,894.317531 638.939869,902.843399 L638.455295,903.260984 C633.967987,907.094448 628.901886,910.491193 623.253137,913.56122 L622.510441,913.960679 L622.195405,914.310876 C615.852185,921.281533 607.827875,926.997618 598.436251,931.926325 L597.746623,932.285564 C586.131765,938.29133 571.961324,943.24675 555.619254,947.25392 C524.640413,954.85011 485.838455,959 445,959 C404.161753,959 365.359845,954.850149 334.380685,947.254062 C318.038722,943.247014 303.868263,938.291772 292.253304,932.28631 C282.564757,927.276889 274.302873,921.453337 267.804784,914.313471 L267.487441,913.960679 L266.742798,913.559945 C261.37732,910.643304 256.537599,907.431949 252.220301,903.831552 L251.542964,903.259822 C241.483415,894.665209 234.261006,883.868453 231.852919,870.715344 L231.764441,870.218679 L231.739779,870.094811 C231.294761,867.811727 231.04399,865.459513 231.005285,863.056174 L231,862.399464 L231,581.348525 L231.001441,581.042679 L231,580.86059 C231,570.430158 234.584881,561.104324 240.417935,553.51787 L240.763639,553.073619 C243.117242,550.085059 245.702057,547.504163 248.500877,545.221471 L248.849441,544.940679 L248.761441,522.834679 L248.574343,522.669331 C234.323172,510.005308 221.456799,495.383787 210.356676,479.126883 L209.585119,477.990031 C149.173555,388.435606 158.084096,272.917319 235.06389,218.8221 L236.221441,218.024679 L479.098441,31.8186791 L479.13679,31.7864134 C482.601355,28.8449024 486.214742,26.0763165 489.970629,23.4876952 L491.101663,22.7165148 C531.567704,-4.57817472 582.894308,-7.88994433 633.164493,10.5160622 Z M554.213276,906.261447 L554.106686,906.279598 C522.893471,911.902111 484.929491,915 445,915 C405.02561,915 367.021153,911.89514 335.788046,906.260621 C363.444031,914.118094 402.154341,919 445,919 C487.845768,919 526.556166,914.118069 554.213276,906.261447 Z M270.998891,607.04296 L271,855 L271.050794,855.000515 C273.305266,877.18193 350.32185,895 445,895 C539.67815,895 616.694734,877.18193 618.949206,855.000515 L619,855 L619.000684,607.086653 C616.895902,608.044541 614.629652,608.941144 612.19235,609.796737 C602.041947,613.359947 588.197526,616.402621 571.170453,618.930765 C537.656023,623.906917 492.802813,626.723737 445.047689,626.723737 C397.292564,626.723737 352.439355,623.906917 318.924924,618.930765 C301.897852,616.402621 288.053431,613.359947 277.903027,609.796737 C275.428703,608.928147 273.130667,608.017292 270.998891,607.04296 Z M445,555 L442.770915,555.002079 C442.24642,555.003057 441.722484,555.004381 441.199116,555.006048 C439.518151,555.011402 437.843054,555.020299 436.174151,555.032691 C435.557925,555.036747 434.942929,555.041726 434.328792,555.047171 L434.58808,555.04451 L433.011962,555.060416 C398.795699,555.406455 367.29494,557.222644 341.346883,560.087308 L341.347295,594.034557 C341.347295,596.937215 340.131687,599.491514 338.227088,601.292699 C367.725451,604.696444 404.792057,606.723737 445.047689,606.723737 C538.077097,606.723737 614.075307,595.896844 619.004016,582.266552 L619,581.348525 L618.969671,581.348341 C618.989861,581.186118 619,581.02353 619,580.86059 C619,566.74049 542.858095,555.263504 448.269098,555.004473 C448.127239,555.004027 447.985318,555.003669 447.843356,555.003336 L445,555 Z M271,580.86059 C271,581.02353 271.010139,581.186118 271.030329,581.348341 L271,581.348525 L270.99366,581.963568 C272.010589,585.552171 277.951863,588.951704 287.840142,592.017057 C282.7073,588.849895 279.410026,583.200883 279.384793,576.932384 L279.368548,572.914346 C273.935064,575.417945 271,578.088325 271,580.86059 Z M309.875976,313.15951 C306.390314,313.15951 302.661633,316.632083 300.432696,322.219507 C302.198447,320.444301 304.284825,319.418324 306.520162,319.418324 C312.871436,319.418324 318.020162,327.701056 318.020162,337.918324 C318.020162,348.135592 312.871436,356.418324 306.520162,356.418324 C303.388893,356.418324 300.549919,354.405098 298.476125,351.139372 L299.376657,575.17451 L321.346657,581.02351 L321.347295,333.418324 C321.347295,321.7775 315.471142,313.359482 310.068708,313.163023 L309.875976,313.15951 Z M604.99908,442.62251 L568.99808,463.84951 L568.905089,542.387025 C569.191046,542.427648 569.47621,542.468424 569.760578,542.509351 C583.691999,544.514414 595.53677,546.856596 605.000642,549.530645 L604.99908,442.62251 Z M548.98408,475.64951 L448.33205,534.995373 C463.415742,535.036233 478.188815,535.358223 492.383101,535.940447 C512.671397,536.764029 531.775118,538.113285 548.908357,539.928181 L548.98408,475.64951 Z M456.030477,100.093527 L260,250.361586 L260.015441,250.385679 L258.331158,251.548863 C201.532387,291.557956 194.118513,380.893161 241.588513,453.293262 L243.058827,455.504231 C253.550602,471.060868 265.763095,484.54988 279.057182,495.772723 L278.404822,333.360838 L278.408195,332.802898 C278.654339,311.408224 291.802544,293.15951 309.875976,293.15951 C328.138115,293.15951 341.347295,311.774766 341.347295,333.418324 L341.347407,529.57648 C373.707808,538.758708 406.807798,536.194319 434.336781,519.922929 L434.386998,520 L652.531371,391.384059 C594.562157,389.304265 531.73309,351.625382 489.693104,289.290766 C447.664685,226.973301 436.26505,154.620857 456.030477,100.093527 Z M570.084972,39.0737053 L567.900321,39.1118703 C548.276836,39.6370511 529.706701,45.0743999 513.599564,55.9401556 L512.008296,57.0370221 C511.912649,57.1043795 511.817153,57.1718925 511.721807,57.2395609 L511.66008,57.2835103 L510.42008,58.1815103 L510.08408,58.4285103 L509.83208,58.6165103 L508.64008,59.5215103 L508.32308,59.7665103 L508.19108,59.8695103 L506.80408,60.9735103 L506.72008,61.0415103 L506.46708,61.2495103 L505.30608,62.2155103 L505.12508,62.3685103 L503.653088,63.6453619 C453.761458,107.832719 453.936803,200.50436 506.274502,278.107866 C559.636017,357.229432 647.830915,391.937577 707.584195,359.059827 C707.654265,359.021273 707.724669,358.98242 707.795034,358.943472 L707.69808,358.99551 L708.807111,358.375232 C709.213403,358.143862 709.618343,357.909319 710.02191,357.671595 L711.228472,356.948872 L711.52808,356.76351 L711.440891,356.819128 L711.63308,356.69851 L711.53608,356.75851 L712.87908,355.91751 L713.20708,355.70851 L713.11208,355.77051 L713.367164,355.607463 L713.21808,355.70151 L714.016544,355.184444 C714.339717,354.972062 714.661921,354.757525 714.983146,354.540829 L714.99308,354.53351 L716.755913,353.315831 L716.822528,353.268646 C717.37745,352.875219 717.927295,352.476532 718.47206,352.07265 L718.88954,351.761374 L719.16008,351.55651 L719.09508,351.60451 L719.18208,351.53951 L719.31008,351.44351 L719.32308,351.43351 L719.41208,351.36551 L719.49408,351.30251 L720.096183,350.841553 L720.166237,350.787216 L720.22308,350.74151 L720.32908,350.65851 L720.37508,350.62251 L720.75108,350.32751 L720.93208,350.18451 L720.99508,350.136368 L721.28208,349.90451 L721.70308,349.56651 L721.40908,349.80351 L721.770523,349.51392 L721.815681,349.477262 L721.93908,349.37451 L722.04008,349.29151 L722.05208,349.28151 L722.29808,349.07951 L722.30908,349.07051 L722.32508,349.05751 L722.34708,349.03951 L722.48108,348.92951 L722.627544,348.810363 L722.651765,348.790236 L722.72208,348.72951 L722.90708,348.57451 L723.02508,348.47551 L723.06408,348.44251 L723.41108,348.15151 L723.461507,348.109549 L723.75508,347.85651 L723.81908,347.80151 L723.82708,347.79451 L724.10308,347.55751 L724.12108,347.54151 L724.23208,347.44651 L724.26288,347.420652 L724.45008,347.25551 L724.79908,346.94851 L725.054545,346.724789 L725.28408,346.51751 L725.38308,346.42851 L725.68108,346.16051 L725.77608,346.07551 L725.804178,346.05145 L725.837866,346.020855 L725.85008,346.00851 L726.20008,345.68751 L726.55308,345.36351 L726.57808,345.34051 L726.71808,345.20951 L726.80808,345.12451 L726.88208,345.05551 L726.90208,345.03651 L727.25308,344.70651 L727.35208,344.61351 L727.37408,344.59251 L727.43708,344.53251 L727.60208,344.37351 L727.80308,344.18151 L727.95408,344.03651 L728.08008,343.91551 L727.99108,344.00151 L728.081611,343.915612 L728.12808,343.86951 L728.41908,343.58451 L728.50308,343.50151 L728.54308,343.46251 L728.65308,343.35451 L728.842715,343.170081 L729.09708,342.91451 L729.34908,342.66151 L729.574775,342.437235 L729.63008,342.37951 L730.04308,341.95751 L730.19008,341.80651 L730.20308,341.79351 L730.298704,341.696858 L730.334772,341.659554 L730.38908,341.60151 L730.73208,341.24351 L730.74808,341.22651 L730.77508,341.19851 L730.87308,341.09551 L731.01008,340.95251 L731.41608,340.51951 L731.75808,340.15351 L731.77908,340.13051 L731.85208,340.05051 L732.09408,339.78651 L732.40008,339.45251 L732.43308,339.41651 L732.449571,339.400347 L732.48608,339.35851 L732.52208,339.31851 L732.55408,339.28251 L732.56508,339.27051 L732.60308,339.22751 L732.61308,339.21651 L732.65408,339.17051 L732.66908,339.15451 L732.72108,339.09651 L732.73008,339.08651 L732.79008,339.01951 L732.79808,339.01051 L732.86608,338.93451 L732.94508,338.84651 L733.10208,338.67151 L733.13508,338.63451 L733.192381,338.571752 L733.48808,338.23351 L733.58308,338.12551 L733.60908,338.09551 L733.67008,338.02651 L733.71308,337.97751 L733.76008,337.92351 L733.78308,337.89751 L733.79408,337.88451 L733.84908,337.82251 L733.98908,337.65951 L734.05008,337.58851 L734.05808,337.57951 L734.13608,337.48851 L734.19708,337.41751 L734.29008,337.30951 L734.34208,337.24851 L734.49208,337.07351 L734.524171,337.037482 L734.54808,337.00851 L734.57108,336.98151 L734.64508,336.89251 L734.73108,336.79051 L734.78708,336.72351 L734.80308,336.70451 L734.87708,336.61651 L735.04308,336.41951 L735.10708,336.34351 L735.12908,336.31651 L735.15008,336.29151 L735.21608,336.21351 L735.30608,336.10451 L735.33908,336.06351 L735.35108,336.04951 L735.45108,335.92751 L735.48008,335.89251 L735.53408,335.82651 L735.64008,335.69751 L735.66008,335.67351 L735.71008,335.61251 L735.84508,335.44851 L735.884245,335.402411 L735.89908,335.38251 L735.94308,335.32751 L735.95208,335.31651 L736.03208,335.21751 L736.06808,335.17251 L736.12008,335.10851 L736.17208,335.04351 L736.19408,335.01651 L736.22208,334.98151 L736.37108,334.79651 L736.41808,334.73851 L736.53508,334.59251 L736.54408,334.58151 L736.61708,334.48951 L736.70208,334.38151 L736.81808,334.23451 L736.86608,334.17351 L736.97908,334.02951 L737.02308,333.97351 L737.09808,333.87851 L737.181572,333.774014 L737.20308,333.74551 L737.22808,333.71251 L737.24808,333.68751 L737.30408,333.61451 L737.37308,333.52451 L737.44308,333.43451 L737.53308,333.31751 L737.65708,333.15651 L737.76908,333.01151 L737.808309,332.961834 L737.87508,332.87251 L737.91008,332.82651 L737.98708,332.72451 L738.03108,332.66651 L738.09308,332.58351 L738.17108,332.48051 L738.27008,332.34951 L738.28508,332.32951 L738.30508,332.30351 L738.31708,332.28751 L738.427063,332.142914 L738.478488,332.074071 L738.54708,331.97951 L738.58308,331.93051 L738.68008,331.79951 L738.72808,331.73451 L738.81008,331.62351 L738.92908,331.46251 L739.061332,331.285189 L739.104973,331.225475 L739.12908,331.19051 L739.17308,331.12951 L739.29908,330.95551 L739.30608,330.94451 L739.35108,330.88351 L739.40508,330.80851 L739.41208,330.79851 L739.62808,330.49951 L739.68708,330.41851 L739.69508,330.40751 L739.71067,330.387183 L739.80908,330.24651 L739.87908,330.14751 L739.90708,330.10751 L739.96908,330.02051 L740.15408,329.75951 L740.10508,329.82751 L740.19108,329.70651 L740.30208,329.54951 L740.31408,329.53251 L740.32908,329.51051 L740.47708,329.29651 L740.34508,329.48851 L740.54308,329.20151 L740.76108,328.88651 L740.76708,328.87751 L740.81008,328.81551 L740.84608,328.76351 L740.92008,328.65651 L741.06008,328.44951 L741.17708,328.27751 L741.19208,328.25551 L741.30208,328.09251 L741.47625,327.836955 L741.65508,327.56651 L741.72008,327.46851 L741.74708,327.42751 L741.77008,327.39251 L741.78908,327.36451 L741.80808,327.33551 L741.96008,327.10551 L741.97808,327.07951 L742.02008,327.01551 L742.034564,326.995299 L742.100474,326.894761 L742.32708,326.54351 L742.50508,326.26851 L742.62108,326.08951 L742.85708,325.71851 L743.07808,325.37051 L743.15208,325.25351 L743.18808,325.19751 L743.22908,325.13251 L743.26708,325.07151 L743.46408,324.75351 L743.47608,324.73351 L743.48908,324.71251 L743.53708,324.63551 L743.64008,324.46951 L743.74308,324.30251 L743.76008,324.27551 L743.76908,324.26151 L743.78708,324.23151 L743.84508,324.13651 L743.95308,323.95851 L744.06808,323.76851 L744.14308,323.64451 L744.15208,323.62951 L744.16208,323.61351 L744.30708,323.37551 L744.21508,323.52551 L744.33893,323.321956 L744.37508,323.25951 L744.46208,323.11251 L744.62108,322.84451 L744.68208,322.74151 L744.70608,322.70151 L744.77008,322.59351 L744.82308,322.50351 L744.859363,322.443962 L744.93508,322.31151 L744.98208,322.23051 L745.04408,322.12451 L745.07608,322.06851 L745.11008,322.00951 L745.14508,321.94951 L745.19508,321.86351 L745.25008,321.76851 L745.28508,321.70751 L745.34808,321.59851 L745.39008,321.52651 L745.40108,321.50751 L745.44208,321.43451 L745.52608,321.28651 L745.58808,321.17751 L745.931929,320.572157 L746.05708,320.34451 L746.12108,320.22951 L746.19308,320.09951 L746.28008,319.94251 L746.32008,319.87051 L746.32508,319.86051 L746.36708,319.78451 L746.41208,319.70351 L746.43908,319.65451 L746.444749,319.645707 L746.46908,319.59951 L746.49508,319.55151 L746.51708,319.51151 L746.53508,319.47751 L746.54908,319.45151 L746.62908,319.30351 L746.65408,319.25751 L746.79508,318.99751 L746.84608,318.90251 L746.85308,318.88951 L746.94008,318.72851 L746.94808,318.71451 L747.08408,318.45751 L747.09408,318.43851 L747.20008,318.23751 L747.24808,318.14651 L747.27508,318.09551 L747.38808,317.88151 L747.39308,317.87251 L747.420449,317.822277 L747.462605,317.741611 L747.68908,317.30051 L747.70408,317.27251 L747.910763,316.873954 L747.98608,316.72351 L748.11708,316.46351 L748.15908,316.38051 L748.17108,316.35651 L748.28008,316.14051 L748.42408,315.85551 L748.47908,315.74451 L748.48708,315.72751 L748.53008,315.63951 L748.57308,315.55251 L748.67108,315.35451 L748.80808,315.07651 L748.86608,314.95751 L748.88408,314.92151 L748.89908,314.89051 L748.93908,314.80651 L749.08708,314.49951 L749.15508,314.35751 L749.344422,313.965668 L749.39008,313.86651 L749.48308,313.66851 L749.69108,313.22551 L749.73808,313.12551 L749.79108,313.01251 L749.81808,312.95451 L749.86108,312.86051 L749.90608,312.76351 L749.99008,312.57951 L750.10608,312.32651 L750.247396,312.019136 L750.29008,311.92251 L750.29808,311.90451 L750.30608,311.88551 L750.51408,311.42151 L750.57808,311.27751 L750.58608,311.26051 L750.688158,311.033155 L750.70108,311.00251 L750.77008,310.84451 L750.77508,310.83251 L750.85608,310.64651 L750.86108,310.63551 L750.89308,310.56151 L751.00208,310.31151 L751.125358,310.030153 L751.131838,310.015093 L751.17408,309.91351 L751.26708,309.69451 L751.39008,309.40551 L751.40608,309.36651 L751.46408,309.23051 L751.544977,309.042719 L751.553943,309.021344 L751.58208,308.95151 L751.62608,308.84451 L751.63508,308.82251 L751.67808,308.71851 L751.70108,308.66351 L751.85008,308.30451 L751.97908,307.99251 L751.98808,307.97051 L751.99808,307.94451 L752.04008,307.84151 L752.12708,307.62651 L752.21508,307.40851 L752.22108,307.39251 L752.356544,307.058649 L752.36908,307.02551 L752.47908,306.74651 L752.51208,306.66251 L752.56408,306.52951 L752.58608,306.47351 L752.70508,306.17151 L752.74108,306.07951 L752.754585,306.046807 L752.800223,305.92906 L752.88508,305.70451 L752.94508,305.54751 L752.95808,305.51351 L753.03408,305.31451 L753.12308,305.08251 L753.138449,305.044829 L753.195599,304.893356 L753.25508,304.73051 L753.29208,304.63251 L753.55908,303.91351 L753.64508,303.67551 L753.66208,303.62851 L753.75808,303.36251 L753.74208,303.40851 L753.887311,303.009699 L753.97508,302.75851 L753.98608,302.72951 L754.00608,302.67151 L754.04008,302.57451 L754.04508,302.56051 L754.18308,302.16851 L754.23708,302.01451 L754.24108,302.00451 L754.25108,301.97651 L754.323396,301.770954 L754.49108,301.27651 L754.36308,301.64451 L754.50208,301.24351 L754.54008,301.13351 L754.614055,300.921334 L754.64108,300.83651 L754.68008,300.72251 L754.65008,300.80851 L754.76208,300.47551 L754.84008,300.24151 L754.85908,300.18551 L754.98808,299.79551 L755.007332,299.738923 L755.17108,299.23051 L755.02908,299.66751 L755.21708,299.08551 L755.19708,299.15051 L755.27108,298.91951 L755.28908,298.86351 L755.314333,298.787831 L755.41808,298.45451 L755.42508,298.43251 L755.44308,298.37451 L755.58408,297.92651 L755.59208,297.89951 L755.64608,297.72751 L755.65108,297.71151 L755.76508,297.33651 L755.81108,297.18551 L755.85308,297.04851 L755.87208,296.98551 L755.973152,296.655044 L756.15508,296.03651 L756.24608,295.72651 L756.285477,295.595663 L756.29308,295.56851 L756.30608,295.52151 L756.36908,295.30251 L756.43108,295.08351 L756.47708,294.92351 L756.48008,294.91151 L756.50308,294.83351 L756.51708,294.78351 L756.58208,294.55451 L756.70108,294.12651 L756.71108,294.08951 L756.75808,293.91951 L756.872386,293.509142 L756.907121,293.381394 L756.93308,293.28151 L757.00808,293.00051 L757.03308,292.90751 L757.167534,292.40718 L757.193552,292.308196 L757.22208,292.19651 L757.30708,291.86551 L757.32608,291.79151 L757.32908,291.77951 L757.37708,291.59451 L757.47208,291.22351 L757.47508,291.21251 L757.49008,291.15251 L757.52008,291.03351 L757.56108,290.86651 L757.724874,290.215337 L757.749974,290.112881 L757.80508,289.87951 L757.83208,289.76851 L757.86308,289.63951 L757.95308,289.26451 L758.01208,289.01851 L758.01608,289.00051 L758.06208,288.80051 L758.07208,288.75751 L758.18408,288.27751 L758.21308,288.14951 L758.23608,288.05151 L758.37808,287.41751 L758.30308,287.75751 L758.40808,287.28551 L758.41908,287.23851 L758.41008,287.27451 L758.42908,287.19151 L758.50608,286.84351 L758.51108,286.81951 L758.550574,286.644651 L758.59908,286.41251 L758.54808,286.64451 L758.71308,285.87751 L758.65008,286.17651 L758.71487,285.878231 L758.74808,285.71451 L758.76608,285.62951 L758.76008,285.65451 L758.87408,285.10751 L758.83808,285.28851 L758.942942,284.777821 L758.97508,284.61151 L758.97908,284.59351 L759.01465,284.422415 L759.06008,284.18451 L759.15408,283.71051 L759.16508,283.65551 L759.19008,283.52651 L759.32808,282.80151 L759.35408,282.66651 L759.35708,282.64951 L759.39408,282.45551 L759.42908,282.25851 L759.51908,281.76551 L759.49708,281.89051 L759.53708,281.66751 L759.59008,281.37451 L759.601534,281.315831 L759.63708,281.10851 L759.61308,281.24051 L759.67908,280.86551 L759.74808,280.46751 L759.77908,280.28951 L759.78108,280.27851 L759.84908,279.87051 L759.90008,279.56351 L759.96208,279.18951 L759.97408,279.11151 L759.985735,279.047521 L760.04708,278.65351 L760.12308,278.17251 L760.13308,278.10751 L760.149322,278.00971 L760.162725,277.922491 L760.20608,277.62751 L760.21608,277.56151 L760.26608,277.22651 L760.30008,276.99851 L760.328586,276.813049 L760.33108,276.78951 L760.336026,276.761906 L760.37808,276.45651 L760.40408,276.27551 L760.45708,275.90451 L760.44408,275.99151 L760.49608,275.62551 L760.511269,275.519111 L760.55708,275.16951 L760.57508,275.03551 L760.642558,274.534839 L760.66508,274.35351 L760.69008,274.15551 L760.75308,273.65551 L760.73808,273.76751 L760.78608,273.38651 L760.79308,273.32951 L760.80508,273.23151 L760.80108,273.25951 L760.84008,272.93351 L760.95608,271.93651 L760.96308,271.87651 L761.01308,271.42451 L760.978691,271.74958 L761.046184,271.132456 L761.01608,271.39751 L761.07808,270.81551 L761.20708,269.54451 L761.21108,269.50751 L761.21708,269.44051 L761.24808,269.12251 L761.280118,268.785359 L761.26108,268.97851 L761.29308,268.63151 L761.29608,268.60251 L761.30508,268.49951 L761.30608,268.48551 L761.31008,268.43951 L761.41808,267.17651 L761.44608,266.83651 L761.47008,266.53151 L761.45308,266.73851 L761.49208,266.24251 L761.49508,266.20251 L761.61208,264.53951 L761.59308,264.82951 L761.62408,264.37551 L761.61208,264.53851 L761.63808,264.13251 L761.715097,262.842446 C761.908437,259.302296 761.988332,255.718352 761.954563,252.097278 L761.95308,252.01551 L761.95308,251.99351 L761.95208,251.94451 L761.95108,251.84751 L761.95008,251.76851 L761.94808,251.61251 L761.948484,251.540955 L761.94408,251.27251 L761.94408,251.30651 L761.94208,251.13751 L761.94008,250.99051 L761.94008,250.97151 L761.93908,250.91851 L761.93808,250.85451 L761.93708,250.83151 L761.93408,250.66551 L761.93308,250.58951 L761.93208,250.55051 L761.92808,250.36151 L761.92708,250.29151 L761.92208,250.06951 L761.92308,250.08951 L761.917343,249.770989 L761.91408,249.65451 L761.90808,249.42051 L761.90708,249.39651 L761.90608,249.33651 L761.90108,249.14651 L761.89608,248.96051 L761.89508,248.92351 L761.88808,248.65851 L761.885609,248.555059 L761.88408,248.52351 L761.881353,248.41294 L761.87308,248.18751 L761.87008,248.10051 L761.86108,247.82451 L761.86008,247.80651 L761.85008,247.50251 L761.84808,247.45051 L761.84208,247.27051 L761.840873,247.212964 L761.83908,247.18851 L761.83308,247.03551 L761.83208,247.01551 L761.83108,247.00351 L761.82608,246.86551 L761.82208,246.77151 L761.791125,245.98622 L761.76808,245.51551 L761.75808,245.29951 L761.74508,245.03751 L761.73908,244.91351 L761.73108,244.73851 L761.73008,244.72851 L761.72708,244.65951 L761.72508,244.63051 L761.72408,244.60951 L761.71608,244.46051 L761.70908,244.34051 L761.70308,244.22151 L761.68808,243.94351 L761.66908,243.59951 L761.666848,243.539718 L761.66008,243.44051 L761.65808,243.40851 L761.64208,243.14151 L761.64108,243.12451 L761.61508,242.70151 L761.60508,242.53851 L761.58908,242.27051 L761.58708,242.24951 L761.581307,242.147131 L761.57508,242.06151 L761.55908,241.83051 L761.55008,241.70051 L761.53208,241.43851 L761.52508,241.33351 L761.50908,241.10551 L761.50708,241.07851 L761.50908,241.09851 L761.508474,241.079073 L761.50608,241.05651 L761.50208,241.00351 L761.50008,240.96751 L761.50008,240.97951 L761.49808,240.94751 L761.49708,240.92651 L761.46708,240.52551 L761.46208,240.46251 L761.45808,240.41051 L761.42808,240.00951 L761.42708,239.99051 L761.41708,239.86251 L761.415825,239.835717 L761.41408,239.82151 L761.41208,239.79851 L761.403596,239.679598 L761.38908,239.50951 L761.39308,239.56851 L761.37508,239.34451 L761.38208,239.42151 L761.36408,239.20951 L761.34908,239.02251 L761.33208,238.81151 L761.33008,238.78651 L761.32808,238.76351 L761.32008,238.66551 L761.31408,238.59251 L761.311779,238.55725 L761.30908,238.52851 L761.28708,238.28651 L761.28608,238.27551 L761.26408,238.02351 L761.25308,237.89551 L761.24308,237.78051 L761.23808,237.72551 L761.21908,237.51251 L761.21508,237.46851 L761.20808,237.38551 L761.20608,237.36451 L761.19508,237.24451 L761.18708,237.16651 L761.18308,237.11851 L761.17108,236.99451 L761.15308,236.80551 L761.14108,236.68051 L761.13708,236.63851 L761.12108,236.46851 L761.11208,236.36851 L761.10208,236.26951 L761.08908,236.13351 L761.08608,236.09951 L761.08508,236.08851 L761.06908,235.93551 L761.05408,235.78251 L761.02208,235.46951 L761.01508,235.39551 L760.99008,235.15051 L760.98208,235.06851 L760.965463,234.901203 L760.96008,234.85651 L760.95708,234.82351 L760.94008,234.66551 L760.92108,234.49051 L760.91808,234.46151 L760.90008,234.29451 L760.88408,234.15151 L760.86608,233.98551 L760.84708,233.80651 L760.84208,233.75751 L760.83908,233.73451 L760.82508,233.60451 L760.80808,233.45451 L760.79108,233.30951 L760.78108,233.22151 L760.77508,233.16651 L760.76708,233.09551 L760.74908,232.93951 L760.74508,232.90851 L760.72508,232.73151 L760.71708,232.66351 L760.70908,232.59251 L760.68208,232.36051 L760.68008,232.34251 L760.66408,232.21051 L760.64008,232.01151 L760.63608,231.98451 L760.61808,231.83051 L760.61108,231.77851 L760.59008,231.60151 L760.57208,231.45851 L760.56808,231.42451 L760.55708,231.33451 L760.54608,231.24751 L760.54208,231.21351 L760.53908,231.18851 L760.531064,231.112605 L760.523967,231.055771 L760.49408,230.83051 L760.49308,230.81951 L760.48408,230.75151 L760.42008,230.25251 L760.40008,230.09651 L760.374044,229.885647 L760.29108,229.27151 L760.28208,229.20351 L760.25608,229.01151 L760.19808,228.58851 L760.19508,228.56351 L760.17108,228.39351 L760.16308,228.33651 L760.10208,227.90351 L760.08308,227.76951 L760.07208,227.69251 L760.04008,227.46551 L760.02808,227.38551 L759.97508,227.02251 L759.91708,226.62851 L759.90908,226.57351 L759.89908,226.50351 L759.89508,226.47651 L759.856795,226.214188 L759.84208,226.12051 L759.83436,226.065527 L759.80208,225.86151 L759.78008,225.71751 L759.76908,225.64451 L759.77108,225.66251 L759.76208,225.60251 L759.71808,225.31851 L759.72108,225.33451 L759.70008,225.19951 L759.656344,224.911953 L759.64408,224.83651 L759.62708,224.73151 L759.60908,224.62151 L759.54908,224.24751 L759.54208,224.20651 L759.51608,224.04351 L759.47408,223.78151 L759.43908,223.56651 L759.43208,223.52451 L759.39508,223.30051 L759.38508,223.24151 L759.37108,223.15951 L759.33408,222.94251 L759.31308,222.81351 L759.27308,222.57351 L759.24908,222.42751 L759.24608,222.41051 L759.24008,222.37751 L759.23108,222.32351 L759.14508,221.82851 L759.13708,221.78151 L759.10708,221.60851 L759.06408,221.36351 L759.05808,221.32951 L759.04008,221.22251 L759.001206,221.001141 L758.91708,220.53951 L758.90308,220.46251 L758.89008,220.38951 L758.87708,220.31751 L758.80708,219.92951 L758.79608,219.87151 L758.78408,219.80651 L758.70608,219.38551 L758.70008,219.35251 L758.66608,219.17051 L758.65908,219.13251 L758.63408,218.99951 L758.63008,218.97851 L758.62408,218.94751 L758.61908,218.91851 L758.61708,218.90751 L758.60708,218.85651 L758.59608,218.79751 L758.59108,218.77051 L758.58908,218.75851 L758.56108,218.60851 L758.55008,218.55351 L758.54408,218.52151 L758.53339,218.462294 L758.52608,218.42651 L758.50608,218.32451 L758.49108,218.24751 L758.48808,218.23051 L758.46208,218.09751 L758.44808,218.02451 L758.43808,217.97451 L758.41308,217.84451 L758.39608,217.75951 L758.38908,217.72051 L758.38608,217.70551 L758.35908,217.56651 L758.35308,217.53551 L758.33808,217.45751 L758.33008,217.41851 L758.32808,217.40751 L758.32208,217.37551 L758.316883,217.344676 L758.30108,217.26651 L758.30608,217.29651 L758.26908,217.10751 L758.25808,217.05351 L758.25508,217.03851 L758.23208,216.92151 L758.22008,216.86151 L758.20308,216.77751 L758.19408,216.73151 L758.17008,216.61151 L758.14608,216.49351 L758.11608,216.34351 L758.10808,216.30251 L758.07108,216.11651 L758.06908,216.10651 L758.06108,216.06751 L758.04108,215.96851 L758.02808,215.90751 L758.02308,215.88051 L758.01308,215.83451 L757.98608,215.70451 L757.98408,215.69151 L757.97108,215.62851 L757.96008,215.57551 L757.94808,215.51751 L757.94408,215.49951 L757.84708,215.03051 L757.83608,214.97651 L757.83008,214.94751 L757.82208,214.91051 L757.81608,214.88051 L757.81108,214.85651 L757.79308,214.77051 L757.790949,214.75747 L757.78608,214.73551 L757.77908,214.70351 L757.76308,214.62751 L757.74708,214.55351 L757.73308,214.48751 L757.71908,214.42251 L757.70508,214.35551 L757.69108,214.29151 L757.68208,214.24951 L757.66908,214.18751 L757.65808,214.13751 L757.65108,214.10251 L757.63308,214.01851 L757.62208,213.96851 L757.60608,213.89251 L757.59208,213.82751 L757.57808,213.76151 L757.55108,213.63551 L757.51808,213.48051 L757.51208,213.45251 L757.49508,213.37651 L757.49208,213.36151 L757.48508,213.33151 L757.47208,213.26951 L757.45508,213.19351 L757.42808,213.07151 L757.38008,212.85451 L757.41708,213.01851 L757.37708,212.83751 L757.37308,212.81851 L757.33608,212.65151 L757.29408,212.46051 L757.242163,212.222398 L757.20608,212.06251 L757.20308,212.05051 L757.19108,211.99651 L757.18508,211.97051 L757.16008,211.85751 L757.14808,211.80751 L757.14208,211.78151 L757.11208,211.64851 L757.09908,211.59051 L757.07308,211.47551 L757.06408,211.43551 L757.05508,211.39651 L757.02408,211.25851 L757.01508,211.21851 L756.99408,211.12751 L756.96508,210.99951 L756.94108,210.89351 L756.92708,210.83151 L756.88008,210.63051 L756.86308,210.55851 L756.85308,210.51751 L756.81108,210.33551 L756.79508,210.26851 L756.75208,210.08351 L756.74108,210.03651 L756.72908,209.98551 L756.656542,209.671318 L756.64208,209.61251 L756.61508,209.49951 L756.59408,209.41151 L756.55208,209.23551 L756.50108,209.02451 L756.45508,208.83351 L756.43008,208.72951 L756.35008,208.39251 L756.32008,208.27251 L756.31608,208.25351 L756.30008,208.18851 L756.28708,208.13551 L756.21408,207.84051 L756.16208,207.62851 L756.13608,207.52351 L756.05408,207.19051 L756.05008,207.17251 L756.03708,207.12051 L756.021462,207.056008 L756.01608,207.03651 L755.99908,206.96851 L755.94208,206.74151 L755.74308,205.95251 L755.75408,205.99951 L755.69808,205.77951 L755.69008,205.74751 L755.66508,205.65151 L755.58108,205.32751 L755.55808,205.23851 L755.54208,205.17651 L755.45408,204.83751 L755.43008,204.74551 L755.39308,204.60351 L755.37308,204.52751 L755.36108,204.48151 L755.26308,204.11151 L755.16408,203.73851 L755.020956,203.199841 L754.95908,202.97451 L754.86808,202.63951 L754.85008,202.57251 L754.81408,202.44051 L754.77308,202.29151 L754.707365,202.048317 L754.65808,201.87151 L754.58408,201.60451 L754.56608,201.54151 L754.50008,201.30451 L754.48308,201.24451 L754.43508,201.07051 L754.42508,201.03451 L754.37808,200.86751 L754.35311,200.776587 L754.34308,200.74151 L754.32008,200.65951 L754.25808,200.44351 L754.21108,200.27851 L754.18308,200.18051 L754.13208,200.00251 L754.03108,199.64851 L754.02708,199.63351 L753.97208,199.44251 L753.94408,199.34651 L753.86308,199.06851 L753.85608,199.04451 L753.73508,198.62951 L753.70808,198.53851 L753.70208,198.51651 L753.62408,198.24951 L753.597808,198.159259 L753.53708,197.95751 L753.37308,197.40851 L753.31408,197.21051 L753.29708,197.15351 L753.27708,197.08851 L753.21608,196.88251 L753.20808,196.85651 L753.20408,196.84451 L753.00408,196.18851 L752.96408,196.05751 L752.821008,195.586816 L752.76108,195.39451 L752.62708,194.96751 L752.62008,194.94551 L752.62608,194.96251 L752.56708,194.77551 L752.56008,194.75151 L752.52708,194.64551 L752.48108,194.49951 L752.426988,194.32349 L752.42108,194.30751 L752.41708,194.29351 L752.413063,194.279322 L752.40008,194.23951 L752.39608,194.22851 L752.36108,194.11851 L752.28908,193.89251 L752.24308,193.74851 L752.22708,193.69651 L752.18308,193.55851 L752.17908,193.54551 L752.16608,193.50551 L752.11508,193.34451 L752.10708,193.31951 L752.04908,193.13751 L752.02208,193.05351 L752.010116,193.014866 L751.99208,192.96051 L751.95308,192.84051 L751.93608,192.78851 L751.91808,192.73251 L751.82508,192.44651 L751.82008,192.43251 L751.79108,192.34251 L751.78108,192.31051 L751.77408,192.29051 L751.73608,192.17351 L751.73308,192.16351 L751.72808,192.14751 L751.68808,192.02451 L751.61708,191.80851 L751.593197,191.733158 L751.57608,191.68251 L751.56608,191.65251 L751.50808,191.47751 L751.47908,191.39051 L751.46508,191.34751 L751.45308,191.31151 L751.41708,191.20351 L751.40608,191.17051 L751.39708,191.14251 L751.38008,191.09151 L751.37608,191.08051 L751.35108,191.00551 L751.27508,190.77651 L751.24208,190.67551 L751.21908,190.60751 L751.19308,190.52751 L751.180661,190.490034 L751.10708,190.27251 L751.09908,190.24851 L751.07708,190.18551 L751.04808,190.09851 L750.98508,189.91251 L750.95008,189.80951 L750.84508,189.49951 L750.82008,189.42551 L750.75008,189.21751 L750.73308,189.16851 L750.72708,189.15051 L750.63008,188.87151 L750.59108,188.75751 L750.58508,188.73951 L750.47108,188.40951 L750.42208,188.26751 L750.36408,188.10051 L750.28508,187.87251 L750.27808,187.85151 L750.20808,187.65351 L750.14908,187.48551 L750.13208,187.43651 L750.09108,187.32051 L749.97808,186.99951 L749.93508,186.87851 L749.90208,186.78451 L749.864736,186.67644 L749.83808,186.60251 L749.82408,186.56351 L749.807705,186.516007 L749.77908,186.43651 L749.72008,186.27351 L749.70508,186.23251 L749.70008,186.21751 L749.67108,186.13751 L749.63208,186.02851 L749.61308,185.97651 L749.59908,185.93651 L749.57108,185.85851 L749.56608,185.84451 L749.52708,185.73551 L749.50308,185.66951 L749.45608,185.53851 L749.38708,185.34751 L749.37508,185.31351 L749.35008,185.24451 L749.34108,185.21951 L749.31908,185.16151 L749.31308,185.14451 L749.28308,185.06151 L749.25308,184.98051 L749.20908,184.85951 L749.19008,184.80551 L749.19508,184.82151 L749.17408,184.76251 L749.13908,184.66751 L749.12808,184.63751 L749.03208,184.37551 L749.06908,184.47451 L748.938141,184.115345 L748.91708,184.05951 L748.88808,183.98051 L748.87508,183.94451 L748.85708,183.89651 L748.84408,183.86151 L748.84008,183.85151 L748.82608,183.81351 L748.81008,183.77151 L748.80208,183.74951 L748.77108,183.66651 L748.74808,183.60551 L748.72608,183.54551 L748.69208,183.45451 L748.66108,183.37151 L748.65508,183.35551 L748.63308,183.29551 L748.62508,183.27451 L748.60808,183.22851 L748.57608,183.14251 L748.56708,183.11851 L748.55708,183.09151 L748.54208,183.05151 L748.53108,183.02251 L748.51808,182.98751 L748.412102,182.702358 L748.21308,182.17951 L748.14208,181.99451 L748.10408,181.89151 L748.07508,181.81751 L748.06408,181.78551 L747.96538,181.524167 L747.91608,181.39751 L747.82808,181.16851 L747.70708,180.85451 L747.76808,181.01451 L747.68908,180.80951 L747.52508,180.38351 L747.44408,180.17451 L747.39508,180.04851 L747.37108,179.98751 L747.33808,179.90351 L747.26908,179.72851 L747.19708,179.54551 L747.14308,179.40651 L747.05908,179.19251 L746.964137,178.951277 L746.951353,178.919002 L746.92308,178.84751 L746.91708,178.83251 L746.84408,178.64951 L746.78708,178.50851 L746.65408,178.17551 L746.62608,178.10551 L746.459272,177.687279 L746.41208,177.57151 L746.24108,177.15051 L746.22408,177.10851 L746.06708,176.72251 L746.02308,176.61351 L746.01908,176.60351 L745.91508,176.34851 L745.90308,176.31851 L745.84008,176.16651 L745.79708,176.06351 L745.78408,176.03251 L745.57708,175.53051 L745.55708,175.48251 L745.53108,175.41951 L745.44808,175.21851 L745.42808,175.17051 L745.23608,174.71251 L745.14108,174.48651 L745.08208,174.34651 L745.06408,174.30251 L745.03308,174.23051 L745.02508,174.21051 L744.94008,174.00851 L744.92608,173.97551 L744.87008,173.84151 L744.85108,173.79751 L744.75708,173.57751 L744.71208,173.47251 L744.69808,173.43851 L744.67008,173.37351 L744.58608,173.17751 L744.55108,173.09451 L744.51508,173.01151 L744.50608,172.98951 L744.42908,172.80951 L744.343349,172.607655 L744.29208,172.48951 L744.28508,172.47351 L744.21708,172.31751 L744.20908,172.29851 L744.16808,172.20451 L744.15308,172.17051 L744.09308,172.03151 L744.08308,172.00851 L744.03608,171.90051 L744.03008,171.88751 L743.99808,171.81351 L743.98308,171.77851 L743.93408,171.66551 L743.87808,171.53651 L743.84708,171.46451 L743.77508,171.29851 L743.76908,171.28651 L743.75908,171.26251 L743.74408,171.22851 L743.71808,171.16851 L743.70308,171.13551 L743.67508,171.07251 L743.66208,171.04251 L743.65108,171.01851 L743.64508,171.00451 L743.50308,170.68151 L743.47408,170.61651 L743.46008,170.58451 L743.37608,170.39351 L743.36608,170.37051 L743.23308,170.06951 L743.211294,170.019907 L743.194538,169.982227 L742.97808,169.50051 L742.96708,169.47651 L742.94408,169.42351 L742.88708,169.29751 L742.75608,169.00451 L742.71508,168.91351 L742.69708,168.87451 L742.627899,168.718245 L742.51008,168.46051 L742.50408,168.44751 L742.49108,168.41851 L742.42508,168.27351 L742.40508,168.23051 L742.32608,168.05551 L742.27408,167.94151 L742.14508,167.65851 L742.067239,167.486635 L742.05208,167.45451 L742.00508,167.35351 L741.96708,167.27051 L741.87508,167.07151 L741.86008,167.03951 L741.79208,166.89151 L741.78708,166.88051 L741.62408,166.52751 L741.501592,166.262496 L741.45508,166.16251 L741.31808,165.87051 L741.30808,165.84951 L741.30208,165.83651 L741.29408,165.82051 L741.28908,165.80951 L741.12808,165.46651 L740.896093,164.971813 L740.848779,164.871792 L740.81908,164.81051 L740.79708,164.76351 L740.75308,164.67151 L740.74808,164.66151 L740.72508,164.61351 L740.67008,164.49651 L740.58608,164.32051 L740.66908,164.49651 L740.48308,164.10451 L740.38408,163.89851 L740.29408,163.70851 L740.281721,163.682218 L740.253347,163.623134 L740.18108,163.47451 L740.11608,163.34051 L739.98808,163.07551 L739.86508,162.82151 L739.85808,162.80651 L739.80708,162.70251 L739.74708,162.57851 L739.63408,162.34451 L739.61708,162.30951 L739.60108,162.27751 L739.52508,162.12151 L739.44308,161.95651 L739.42008,161.90951 L739.38908,161.84651 L739.32108,161.70751 L739.22708,161.51651 L739.13908,161.33651 L739.11808,161.29451 L739.05608,161.16751 L739.02808,161.11051 L738.97708,161.00851 L738.83708,160.72651 L738.71808,160.48851 L738.55008,160.15151 L738.33008,159.71151 L738.22808,159.50951 L737.91808,158.89751 L737.84408,158.75151 L737.81708,158.69851 L737.743689,158.552037 L737.709698,158.485351 L737.60208,158.27551 L737.082185,157.26323 L736.82508,156.76951 L736.74408,156.61451 L736.59208,156.32151 L736.446612,156.042411 L736.18708,155.55151 L736.07908,155.34551 L736.03608,155.26451 L736.01808,155.23051 L735.96808,155.13551 L735.95608,155.11251 L735.82608,154.86651 L735.78308,154.78551 L735.62508,154.48951 L735.52908,154.31051 L735.39508,154.06051 L735.33708,153.95151 L735.10008,153.50951 L735.05708,153.43051 L734.97408,153.27751 L734.94708,153.22851 L734.69808,152.76951 L734.58508,152.56151 L734.48308,152.37351 L734.47608,152.36051 L734.42208,152.26251 L734.12908,151.72851 L734.05208,151.58951 L733.92008,151.34951 L733.90308,151.31851 L733.834787,151.193195 L733.714366,150.975752 L733.59608,150.76451 L733.45808,150.51751 L733.44108,150.48651 L733.31808,150.26651 L733.114572,149.900333 L733.027724,149.745654 L732.97608,149.65551 L732.87508,149.47651 L732.83508,149.40551 L732.72808,149.21651 L732.31208,148.48151 L732.20408,148.29251 L732.02708,147.98451 L731.99908,147.93551 L731.90708,147.77551 L731.81308,147.61051 L731.673,147.365796 L731.51508,147.09351 L731.04508,146.28451 L731.01008,146.22351 L730.952277,146.124105 L730.94608,146.11251 L730.91608,146.06351 L730.869147,145.981941 L730.73208,145.74951 L730.33708,145.07951 L730.16708,144.79051 L730.099352,144.675621 C729.240606,143.228436 728.364396,141.785191 727.470708,140.346275 C726.768929,139.21635 726.056415,138.089162 725.333119,136.964832 C724.344855,135.428626 723.336602,133.897963 722.308209,132.373118 C682.824725,73.8291457 624.270381,39.6009894 572.277862,39.0758124 L570.084972,39.0737053 Z M615.344353,59.4123445 C652.269,72.9348324 686.85291,101.263259 712.35937,139.082858 C737.866187,176.902984 751.173125,219.585279 749.87717,258.891323 C748.66363,295.697778 734.842665,326.668564 708.272256,344.592766 C681.702896,362.516261 647.813735,363.730782 613.238358,351.06864 C576.313711,337.546152 541.729801,309.217725 516.223341,271.398127 C490.716524,233.578 477.409586,190.895705 478.70554,151.589662 C479.919081,114.783206 493.740046,83.8124206 520.310454,65.8882185 C546.879815,47.9647233 580.768975,46.7502023 615.344353,59.4123445 Z M531.495271,82.4683233 C509.659838,97.1983458 499.647297,123.355999 498.694678,152.248721 C497.564358,186.531123 509.153873,225.147005 532.804739,260.215227 C556.454796,295.282252 587.911476,320.494491 620.116031,332.288394 C647.255839,342.227494 675.254024,342.741323 697.08744,328.012661 C718.922873,313.282638 728.935414,287.124986 729.888032,258.232263 C731.018353,223.949861 719.428837,185.33398 695.777972,150.265757 C672.127915,115.198733 640.671235,89.986493 608.46668,78.1925899 C581.326872,68.2534906 553.328687,67.7396616 531.495271,82.4683233 Z M616.938562,160 C639.161889,160 661.865964,180.594902 667.649533,206 C673.433102,231.405098 660.106044,252 637.882718,252 L607.061438,252 C584.838111,252 562.134036,231.405098 556.350467,206 C550.566898,180.594902 563.893956,160 586.117282,160 L616.938562,160 Z M618.837841,171 C601.753789,171 591.558751,186.893891 596.066587,206.5 C600.574422,226.106109 618.078106,242 635.162159,242 C652.246211,242 662.441249,226.106109 657.933413,206.5 C653.425578,186.893891 635.921894,171 618.837841,171 Z M710.287143,191 C711.820809,191 713.464198,192.567003 713.957756,194.5 L719.319753,215.5 C719.813311,217.432997 718.970137,219 717.436471,219 L705.634446,219 C704.10078,219 702.457391,217.432997 701.963833,215.5 L696.601836,194.5 C696.108278,192.567003 696.951452,191 698.485117,191 L710.287143,191 Z M521.756637,183 C523.564227,183 525.501139,184.790861 526.08285,187 L532.402541,211 C532.984252,213.209139 531.990481,215 530.182891,215 L516.272932,215 C514.465341,215 512.52843,213.209139 511.946718,211 L505.627028,187 C505.045316,184.790861 506.039087,183 507.846677,183 L521.756637,183 Z" id="Combined-Shape" fill="#000000"></path>
    </g>
</svg>