<?xml version="1.0" encoding="UTF-8"?>
<svg width="600px" height="600px" viewBox="0 0 600 600" version="1.1" xmlns="http://www.w3.org/2000/svg" xmlns:xlink="http://www.w3.org/1999/xlink">
    <title>drivers/dryer/assets/icon</title>
    <g id="/drivers/dryer/assets/icon" stroke="none" stroke-width="1" fill="none" fill-rule="evenodd">
        <g id="com.smartthings-/-drivers-/-washing-machine-/-assets-/-icon" transform="translate(93.8532, 43.5676)" stroke="#000000">
            <path d="M77.5230477,-20.3219529 L423.563028,2.10164553 L430.180172,94.5870282 L430.180172,516.617044 L78.0121871,534.300411 L-20,489.966257 L-20,30.9125749 L77.5230477,-20.3219529 Z" id="Path-254" stroke-width="40" stroke-linejoin="round"></path>
            <polyline id="Path-255" stroke-width="20" stroke-linecap="round" stroke-linejoin="round" points="81.8440839 514.082803 82.9950013 82.954596 81.8440839 -2.45063229e-13"></polyline>
            <path d="M414.793673,59.2274891 C414.753943,56.9055922 414.753943,55.8285269 414.793673,55.9962933 C416.183269,61.8640494 409.746192,69.8108636 405.688563,71.8432843 C401.456915,73.962869 395.283825,75.2817563 387.169293,75.7999461 L125.867712,65.7391517 C120.555667,65.7391517 114.022199,64.8269993 106.267306,63.0026944 C98.5124142,61.1783895 90.7549791,57.0822283 82.9950013,50.7142107" id="Path-258" stroke-width="20" stroke-linecap="round" stroke-linejoin="round"></path>
            <path d="M414.793673,87.6748083 C414.753943,84.7101709 414.753943,83.3349557 414.793673,83.5491627 C416.183269,91.0412133 409.746192,101.187841 405.688563,103.78287 C401.456915,106.489192 395.283825,108.173169 387.169293,108.834803 L322.744351,105.987146 M196.368694,103.190943 L125.867712,99.8814773 C120.555667,99.8814773 114.022199,98.6830662 106.267306,96.286244 C98.5124142,93.8894217 90.7549791,87.3306884 82.9950013,76.6100441" id="Shape" stroke-width="20" stroke-linecap="round" stroke-linejoin="round"></path>
            <ellipse id="Oval" stroke-width="20" stroke-linecap="round" stroke-linejoin="round" transform="translate(268.0652, 38.5047) rotate(3) translate(-268.0652, -38.5047)" cx="268.065246" cy="38.5047363" rx="14.5016667" ry="16.4791667"></ellipse>
            <path d="M161.976306,101.460002 C172.162683,102.397066 199.174868,99.5659635 200.231514,69.8239692" id="Path-351" stroke-width="20" stroke-linecap="round" stroke-linejoin="round"></path>
            <path d="M259.463443,118.031321 C296.218209,118.045964 329.457054,134.032925 353.533607,159.768096 C377.854328,185.764255 392.846934,221.69104 392.846934,261.346415 C392.846934,301.001789 377.854328,336.928575 353.533607,362.924734 C329.446018,388.6717 296.187738,404.661519 259.412902,404.661519 C258.488957,404.661519 257.567213,404.651446 256.647761,404.631395 L253.725216,404.661509 C216.97045,404.646866 183.731605,388.659905 159.655052,362.924734 C135.334331,336.928575 120.341725,301.001789 120.341725,261.346415 C120.341725,221.69104 135.334331,185.764255 159.655052,159.768096 C183.742641,134.021129 217.000921,118.031311 253.775757,118.031311 C254.699702,118.031311 255.621446,118.041383 256.540898,118.061434 L259.463443,118.031321 Z M265.675393,149.822986 L264.283047,149.834206 C263.780875,149.826729 263.277857,149.822977 262.774017,149.822977 C233.616073,149.822977 207.185721,162.354197 188.066366,182.712769 C169.167206,202.836874 157.430267,230.625289 157.430267,261.346415 C157.430267,292.067541 169.167206,319.855955 188.066366,339.98006 C207.194736,360.348233 233.641,372.881668 262.815266,372.869844 L264.208663,372.858638 C264.710513,372.866106 265.213208,372.869852 265.716725,372.869852 C294.874669,372.869852 321.305021,360.338633 340.424377,339.98006 C359.323536,319.855955 371.060475,292.067541 371.060475,261.346415 C371.060475,230.625289 359.323536,202.836874 340.424377,182.712769 C321.295988,162.344577 294.849691,149.811137 265.675393,149.822986 Z" id="Combined-Shape" stroke-width="20" fill="#000000"></path>
            <path d="M253.10162,165.703195 C277.30412,165.714485 299.174076,176.36018 315.022449,193.445964 C331.141171,210.823205 341.055267,234.844472 341.055267,261.346415 C341.055267,287.848357 331.141171,311.869624 315.022449,329.246865 C299.165664,346.341718 277.280902,356.989644 253.06308,356.989644 C252.585972,356.989644 252.109757,356.985525 251.634463,356.977315 L250.081831,356.989635 C225.87933,356.978345 204.009375,346.332649 188.161002,329.246865 C172.04228,311.869624 162.128184,287.848357 162.128184,261.346415 C162.128184,234.844472 172.04228,210.823205 188.161002,193.445964 C204.017787,176.351112 225.902548,165.703186 250.120371,165.703186 C250.597479,165.703186 251.073694,165.707305 251.548987,165.715514 Z" id="Combined-Shape" stroke-width="20"></path>
            <path d="M197.267308,102.947863 C214.863842,95.9545851 233.907073,92.1405866 253.775757,92.1405866 C254.404273,92.1405866 255.031952,92.1445137 255.658776,92.1521483 L256.598368,92.1664523 L259.33415,92.1405866 C280.558751,92.1299283 300.842534,96.4714023 319.428437,104.39182 C319.751311,104.529413 324.425532,106.060304 324.747377,106.200054" id="Path" stroke-width="20" stroke-linecap="round" stroke-linejoin="round"></path>
        </g>
    </g>
</svg>