<?xml version="1.0" encoding="UTF-8"?>
<svg width="960px" height="960px" viewBox="0 0 960 960" version="1.1" xmlns="http://www.w3.org/2000/svg" xmlns:xlink="http://www.w3.org/1999/xlink">
    <title>drivers/dryer/assets/icon</title>
    <g id="/drivers/dryer/assets/icon" stroke="none" fill="none" fill-rule="nonzero">
        <path d="M272.165828,3.5260937 L821.005579,39.091239 C840.957304,40.3841228 856.890137,56.2103061 858.316989,76.1528979 L867.358024,202.516126 C867.425996,203.466149 867.460015,204.418297 867.460015,205.370748 L867.460015,888.915402 C867.460015,910.227086 850.750871,927.796296 829.466003,928.865071 L271.585216,956.877868 C265.230449,957.196959 258.89124,955.995472 253.093962,953.373172 L114.031448,890.470597 C99.7155649,883.995049 90.5167144,869.737952 90.5167144,854.025625 L90.5167144,116.5 C90.5167144,101.638049 98.7566171,88.001337 111.913417,81.0893049 L250.975931,8.03167976 C257.490326,4.60928954 264.822555,3.0502452 272.165828,3.5260937 Z M281.437046,177.240044 L281.533807,184.25305 L281.534734,184.418472 L279.579714,916.425362 L827.460015,888.915402 L827.460015,205.370748 L827.404987,204.606917 C826.716014,205.164176 826.021915,205.674184 825.325508,206.132476 C816.538246,211.915211 804.507929,215.292129 789.197951,216.576642 C788.796708,216.610306 788.393799,216.619706 787.991422,216.604789 L422.468128,203.053973 C421.447886,203.028563 420.441278,202.991379 419.450767,202.942657 L344.17377,200.150653 L343.700861,200.149223 C333.919971,200.055415 322.406358,197.945501 309.058422,193.884358 L308.124193,193.597857 C298.980561,190.771814 290.108501,185.294516 281.437046,177.240044 Z M259.649714,48.6583615 L130.516714,116.5 L130.516714,854.025625 L259.590714,912.409362 L261.535229,184.443375 L259.649714,48.6583615 Z M566.501431,227.049322 L567.258874,227.0349 L571.289079,227 C705.886904,227 815,343.629823 815,487.5 C815,629.931476 708.058255,745.66468 575.319285,747.9651 L571.289079,748 C569.688928,748 568.092378,747.983516 566.499571,747.950699 L565.741126,747.9651 L561.710921,748 C427.113096,748 318,631.370177 318,487.5 C318,343.629823 427.113096,227 561.710921,227 C563.311408,227 564.908291,227.016491 566.501431,227.049322 Z M560.508016,328 L558.159522,328.019206 L557.921436,328.021095 L557.683373,328.017317 C556.956315,328.005776 556.228513,328 555.5,328 C523.604915,328 494.001474,339.143225 469.87466,358.092927 C436.225354,389.704279 415,435.962758 415,487.5 C415,489.27096 415.025063,491.035686 415.074831,492.7938 L415.225085,493.356693 L415.356792,493.885078 L415.470026,494.371359 L415.605409,495.005225 L415.699657,495.50164 C420.670148,523.744524 453.983455,559.575154 573.998217,559.575154 C630.251711,559.575154 670.087118,552.937869 697.267402,543.171988 L697.91294,542.937319 C703.786981,525.687815 707,507.015942 707,487.5 C707,399.091596 641.064193,328.004716 560.508016,328 Z M619.820041,319.726086 L620.49099,320.004485 C682.802513,345.960793 727,411.165963 727,487.5 C727,502.690522 725.249724,517.440327 721.954728,531.52781 L722.833492,530.968286 C732.087406,525.044869 738.425544,518.653127 742.345406,512.256943 C743.435275,504.172442 744,495.906445 744,487.5 C744,406.521249 691.597169,338.575125 620.930476,320.013309 L619.820041,319.726086 Z M823.89063,174.659789 L824.306747,174.453471 C815.721686,178.753631 804.007016,181.256483 788.999182,182.214876 C788.658946,182.236603 788.317821,182.240917 787.977144,182.2278 L685.789211,178.293129 C690.589237,186.562147 703.309886,192.13826 720.851806,194.057997 C721.001836,194.074415 721.150725,194.094073 721.298413,194.116892 L788.12077,196.594653 L788.229738,196.585655 C799.90036,195.541476 808.502833,193.132254 814.004615,189.636607 L814.331001,189.425567 C816.198908,188.196332 819.592263,183.853575 822.080003,178.84983 C822.785381,177.43106 823.390372,176.025774 823.89063,174.659789 Z M484.981263,185.35803 L670.955558,192.251186 C667.650069,187.918917 665.38841,182.982744 664.341783,177.467305 L493.525685,170.890515 C491.979418,176.481585 489.058405,181.288965 484.981263,185.35803 Z M283.775303,150.221812 L283.945297,150.435745 C294.430693,163.621195 304.538478,171.55614 314.029994,174.489704 C326.324789,178.289684 336.480418,180.152496 344.380438,180.152496 C344.503957,180.152496 344.627466,180.154784 344.750901,180.15936 L419.956757,182.946675 C420.052076,182.948858 420.147661,182.95239 420.243492,182.957288 L420.295714,182.958362 L423.060589,183.061893 C433.379021,183.306022 445.554855,182.117102 455.235083,179.277078 C463.146444,176.956011 468.63195,173.885833 471.735996,170.050877 L344.18077,165.139653 L343.653478,165.137808 C334.157772,165.061159 322.897585,163.490321 309.798405,160.461351 L308.787147,160.225478 C300.3753,158.246627 292.038245,154.903769 283.775303,150.221812 Z M279.588714,44.0913615 L280.699796,124.133389 C291.790058,132.736845 302.6801,138.242868 313.36704,140.756924 C325.84982,143.693444 336.216477,145.140757 344.380438,145.140757 C344.508721,145.140757 344.636992,145.143225 344.765179,145.148161 L788.22877,162.221653 L788.460024,162.206969 C800.409845,161.391671 809.306482,159.494919 815.004879,156.740967 L815.349763,156.571289 C818.032689,155.227441 821.235608,151.519407 823.348682,147.904956 L818.41898,79.0075202 L279.588714,44.0913615 Z M587.979173,70.9184294 C607.388381,71.9356228 621.667468,89.985119 620.582934,110.679269 C619.498399,131.373419 603.410848,147.831467 584.00164,146.814274 C564.592433,145.797081 550.313345,127.747584 551.39788,107.053434 C552.482414,86.359284 568.569965,69.9012359 587.979173,70.9184294 Z M571.37047,108.100153 C570.836361,118.291563 577.278274,126.43447 585.04836,126.841683 C592.818445,127.248896 600.076234,119.82396 600.610343,109.63255 C601.144452,99.44114 594.702539,91.298233 586.932454,90.8910201 C579.162368,90.4838071 571.90458,97.9087432 571.37047,108.100153 Z" id="Combined-Shape" fill="#000000"></path>
    </g>
</svg>