<?xml version="1.0" encoding="UTF-8"?>
<svg width="960px" height="960px" viewBox="0 0 960 960" version="1.1" xmlns="http://www.w3.org/2000/svg" xmlns:xlink="http://www.w3.org/1999/xlink">
    <title>com.smartthings / drivers / oven / assets / icon</title>
    <g id="com.smartthings-/-drivers-/-oven-/-assets-/-icon" stroke="none" stroke-width="1" fill="none" fill-rule="evenodd">
        <path d="M47.1842839,15.0172528 L914.577823,40.5014832 C936.202449,41.1368199 953.403121,58.8502733 953.403121,80.4842304 L953.403121,879.51577 C953.403121,901.149727 936.202449,918.86318 914.577823,919.498517 L47.1842839,944.982747 C24.6423969,945.645033 6.00958115,927.551614 6.00958115,905 L6.00958115,55 C6.00958115,32.448386 24.6423969,14.3549667 47.1842839,15.0172528 Z M913.402581,857.866634 L46.5357369,880.687351 C46.3598842,880.691869 46.1845128,880.694106 46.0096508,880.694092 L46.0095811,905 L913.403121,879.51577 L913.402581,857.866634 Z M46.0095811,228.083634 L46.0095811,860.687204 L913.403121,837.860097 L913.403196,244.385719 C913.278134,244.385672 913.152809,244.384473 913.027231,244.382112 L46.0095811,228.083634 Z M158.0455,306.112022 L809.589956,313.551966 C815.067911,313.614513 819.475784,318.073002 819.475784,323.551314 L819.475784,745.199602 C819.475784,750.647024 815.115698,755.092315 809.669295,755.197729 L158.124839,767.810125 C152.527312,767.916552 147.931328,763.408661 147.931328,757.810085 L147.931328,316.112036 C147.931328,310.544548 152.478375,306.049123 158.0455,306.112022 Z M167.931328,326.226036 L167.931328,747.614036 L799.475328,735.391036 L799.475328,333.437036 L167.931328,326.226036 Z M198.328479,345.650825 L769.25238,350.611217 C774.741124,350.658901 779.165507,355.121888 779.165507,360.610839 L779.165507,708.460013 C779.165507,713.918055 774.789017,718.367907 769.331729,718.458631 L198.407828,727.951381 C192.820723,728.042853 188.241606,723.539228 188.241606,717.951351 L188.241606,355.650825 C188.241606,350.094029 192.771884,345.602937 198.328479,345.650825 Z M208.241606,365.737834 L208.241606,707.782834 L759.164606,698.623834 L759.164606,370.523834 L208.241606,365.737834 Z M46.0095811,55 L46.0095811,208.080569 L913.403121,224.385645 L913.403121,80.4842304 L46.0095811,55 Z" id="Combined-Shape" fill="#000000" fill-rule="nonzero"></path>
        <polygon id="Rectangle" fill="#000000" points="315.820936 84.6702582 649.587574 93.9651814 649.587574 190.473886 315.820936 183.502694"></polygon>
    </g>
</svg>