<?xml version="1.0" encoding="UTF-8"?>
<svg width="960px" height="960px" viewBox="0 0 960 960" version="1.1" xmlns="http://www.w3.org/2000/svg" xmlns:xlink="http://www.w3.org/1999/xlink">
    <title>drivers/oven/assets/icon</title>
    <g id="/drivers/oven/assets/icon" stroke="none" fill="none" fill-rule="nonzero">
        <path d="M912.138133,49.1224741 C934.293541,49.0317948 952.30247,66.9668866 952.30247,89.1224741 L952.30247,809.696135 C952.30247,830.206763 936.78863,847.393798 916.385116,849.487239 L230.293523,919.881604 C221.141171,920.820653 211.944883,918.575935 204.254444,913.525736 L199.214497,910.216076 C187.953049,902.820848 181.17093,890.25339 181.17093,876.78084 L181.170179,875.247481 L32.5582971,778.230615 C21.3879462,770.938391 14.5975711,758.565125 14.4241788,745.248715 L14.4241788,130.738686 C14.4241788,109.314737 31.3038644,91.6946512 52.7080887,90.7755155 L74.9111788,89.8224815 L75.2486772,89.4579573 C82.9128817,81.2816649 93.8921382,76.4488252 105.698752,76.8206509 L106.270675,76.8427122 L179.398179,80.1814815 L179.530469,79.7882974 C184.445484,65.4893956 197.253791,54.7548474 212.999481,53.0294052 L213.614424,52.9667506 L222.635522,52.1168668 C223.82811,52.0045124 225.025142,51.9457857 226.223,51.9408643 L912.138133,49.1224741 Z M224.952179,223.440474 L217.161179,223.440474 L220.427314,851.390747 C220.430194,851.947165 220.387575,852.493205 220.302948,853.025341 L221.17093,853.591632 L221.17093,876.78084 L224.805179,879.167474 L224.952179,223.440474 Z M912.302179,209.069474 L244.952179,223.222474 L244.805179,878.182474 L912.30247,809.696135 L912.302179,209.069474 Z M104.446434,116.801092 L101.524059,128.716133 L54.4241788,130.738686 L54.4241788,744.736089 L200.367179,840.010474 L196.628179,121.008474 L104.446434,116.801092 Z M841.556049,311.203596 L841.556049,711.496481 C841.556049,716.651755 837.636948,720.962183 832.504935,721.45136 L340.447221,768.353648 C334.576104,768.913275 329.498335,764.296497 329.498335,758.398769 L329.498335,326.329796 C329.498335,320.926582 333.790411,316.500537 339.191073,316.334517 L831.248787,301.208317 C836.889368,301.034922 841.556049,305.560351 841.556049,311.203596 Z M821.555335,321.515596 L349.498335,336.026596 L349.498335,747.399596 L821.555335,702.404596 L821.555335,321.515596 Z M907.892056,225.582241 L907.892056,247.592977 C907.892056,253.004786 903.586793,257.434605 898.177185,257.588911 L296.459311,274.752597 C295.442282,274.781607 294.426781,274.655237 293.44788,274.377852 L273.733132,268.791394 C269.429705,267.571957 266.459434,263.64307 266.459434,259.170206 L266.459434,237.881571 C266.459434,231.491981 272.36986,226.741452 278.609951,228.115545 L297.125434,232.192241 L897.61561,215.586063 C903.24459,215.430392 907.892056,219.951109 907.892056,225.582241 Z M887.891434,235.862241 L296.450628,252.219014 C295.635282,252.241562 294.820239,252.164271 294.023665,251.988862 L286.459434,250.322241 L286.459434,251.609241 L297.422434,254.716241 L887.891434,237.873241 L887.891434,235.862241 Z M224.982179,92.0724741 L217.366238,92.7904105 L217.366238,121.956279 L216.633179,121.922474 L217.057179,203.440474 L224.957179,203.440474 L224.982179,92.0724741 Z M912.30247,89.1224815 L244.981949,91.8646066 C244.982143,91.8906361 244.982237,91.9166893 244.982231,91.9427657 L244.957179,203.218474 L912.090448,189.070908 L912.302179,189.068474 L912.30247,89.1224815 Z M723.915674,96.4965326 C729.474509,96.4454535 734.008347,100.937468 734.008347,106.496533 L734.008347,175.807191 C734.008347,181.248084 729.658334,185.690559 724.218645,185.80498 L442.690402,191.72676 C437.086482,191.844635 432.480104,187.334131 432.480104,181.728972 L432.480104,109.105671 C432.480104,103.61898 436.900976,99.156947 442.387431,99.1061 L723.915674,96.4965326 Z M364,111.99967 C383.046529,111.99967 398,129.514513 398,149.846244 C398,170.109688 383.071403,187 364,187 C363.83714,187 363.674375,186.998744 363.511714,186.996234 L363.361809,186.992619 L363.278182,186.996204 L363,187 L356,187 C355.907202,187 355.814703,186.998737 355.722517,186.996227 L355.638809,186.992619 L355.490485,186.996167 L355,187 C335.896681,187 321,169.930886 321,149.5 C321,129.069114 335.896681,111.99967 355,111.99967 C355.163593,111.99967 355.327092,112.001278 355.490485,112.003833 L355.624809,112.007619 L355.725692,112.003107 C355.908881,111.998326 356.093241,111.998512 356.278639,112.003793 L356.557499,112.015552 L360.316809,112.225619 L360.506769,112.201213 C361.43198,112.094182 362.363026,112.029624 363.298032,112.008082 L364,111.99967 Z M808,109 C825.763796,109 839.818107,124.868682 839.998249,143.447157 C840.000678,143.64288 840.00222,143.839006 840.00222,144.035421 C840.00222,162.721559 825.986702,178.263027 808.153419,178.263027 C806.80279,178.263027 805.474059,178.173881 804.171658,178.000975 L802,178 C784.072619,178 770,162.32822 770,143.5 C770,124.67178 784.072619,109 802,109 C802.935409,109 803.867221,109.043477 804.793361,109.129979 L805.024179,109.153474 L805.252606,109.129232 C805.935874,109.06475 806.622202,109.024298 807.310747,109.008102 L808,109 Z M714.008104,116.589542 L452.480104,119.012542 L452.480104,171.515542 L714.008104,166.014542 L714.008104,116.589542 Z M363.192009,132.451454 C355.813576,132.451454 349.018868,140.267696 349.018868,149.997519 C349.018868,159.530942 355.613234,166.858561 363.192009,166.858561 C370.770783,166.858561 377.36515,159.530942 377.36515,149.997519 C377.36515,140.267696 370.570442,132.451454 363.192009,132.451454 Z M808.153419,129.18995 C802.042468,129.18995 796.304619,135.776674 796.304619,144.035421 C796.304619,151.134506 800.593137,156.74786 805.91068,158.000922 L808,158 C814.404373,158 820,151.846965 820,143.808472 L819.998761,143.684452 C819.839109,135.590848 814.177553,129.18995 808.153419,129.18995 Z" id="Combined-Shape" fill="#000000"></path>
    </g>
</svg>